<svg xmlns="http://www.w3.org/2000/svg" width="1996" height="1918" xmlns:xlink="http://www.w3.org/1999/xlink" shape-rendering="geometricPrecision" text-rendering="geometricPrecision" image-rendering="optimizeQuality" fill-rule="evenodd" clip-rule="evenodd"><defs><style>.fil108{fill:none;fill-rule:nonzero}.fil47,.fil86{fill:#fefefe}.fil56{fill:#ebecec}.fil50{fill:#d9dada}.fil48{fill:#c5c6c6}.fil59{fill:#b2b3b3}.fil49{fill:#9d9e9e}.fil85{fill:#eb6154}.fil87{fill:#e94c3c}.fil84{fill:#d34a40}.fil43{fill:#cec8c4}.fil61{fill:#b0cb1f}.fil39{fill:#9dc53b}.fil0{fill:#6097d0}.fil60{fill:#00a0e3}.fil58{fill:#000}.fil52{fill:#378cd5}.fil62{fill:#433588}.fil51{fill:#494949}.fil54{fill:#75b93f}.fil55{fill:#83beeb}.fil53{fill:#e0e0e0}.fil67{fill:#fff}.fil41,.fil64,.fil65{fill:#fefefe;fill-rule:nonzero}.fil65{fill:#727271}.fil44,.fil57,.fil8{fill:#5b5b5b;fill-rule:nonzero}.fil44,.fil8{fill:#fdca38}.fil8{fill:#dfeefb}.fil2,.fil3,.fil4{fill:#c2dbf0;fill-rule:nonzero}.fil2,.fil4{fill:#6097d0}.fil2{fill:#3f6aa9}.fil103,.fil104,.fil106{fill:#006f73;fill-rule:nonzero}.fil103,.fil104{fill:#00919d}.fil103{fill:#00aec0}.fil102,.fil107,.fil94{fill:#03030c;fill-rule:nonzero}.fil107,.fil94{fill:#0c0c13}.fil94{fill:#131321}.fil19,.fil72,.fil74{fill:#1c0587;fill-rule:nonzero}.fil19,.fil72{fill:#2d2d2d}.fil19{fill:#3305af}.fil105,.fil93,.fil97{fill:#343445;fill-rule:nonzero}.fil105,.fil93{fill:#37374b}.fil105{fill:#45455a}.fil5,.fil92,.fil98{fill:#595979;fill-rule:nonzero}.fil5,.fil98{fill:#6954e4}.fil98{fill:#8e8e9c}.fil11,.fil6,.fil99{fill:#b3afff;fill-rule:nonzero}.fil11,.fil99{fill:#b6aaff}.fil99{fill:#b8b8c9}.fil101,.fil95,.fil96{fill:#bebecd;fill-rule:nonzero}.fil101,.fil96{fill:#d5d5d6}.fil96{fill:#dadae9}.fil100,.fil22,.fil34{fill:#db1185;fill-rule:nonzero}.fil100,.fil22{fill:#e2f4ff}.fil100{fill:#e6e6e8}.fil10,.fil35,.fil9{fill:#f22f95;fill-rule:nonzero}.fil35,.fil9{fill:#f4f2ff}.fil9{fill:#f6f4fb}.fil13,.fil33,.fil91{fill:#fb26b5;fill-rule:nonzero}.fil13,.fil91{fill:#fdc6a8}.fil91{fill:#ff4a1a}.fil110,.fil14,.fil24{fill:#ffbc1f;fill-rule:nonzero}.fil14,.fil24{fill:#ffe950}.fil14{fill:#fff}</style><clipPath id="id0"><path d="M1035 1381c-62 12-132 8-190-12-15-5-28-11-41-19-33-19-54-42-61-67-13-40 7-83 61-114 6-4 11-7 17-9 21-10 43-17 67-22 46-9 97-9 144 0 32 6 62 16 87 31 33 19 54 42 61 67 6 18 5 37-3 56-9 21-29 41-58 58-25 14-53 25-84 31z"/></clipPath><clipPath id="id1"><path d="M1101 143l730 421 3 425-730-421-3-425z"/></clipPath><linearGradient id="id2" gradientUnits="userSpaceOnUse" x1="866.828" y1="431.573" x2="850.474" y2="431.573"><stop offset="0" stop-color="#4bc193"/><stop offset=".329" stop-color="#4bd28a"/><stop offset="1" stop-color="#4be480"/></linearGradient><linearGradient id="id3" gradientUnits="userSpaceOnUse" x1="1391.64" y1="703.702" x2="1365.21" y2="703.702"><stop offset="0" stop-color="#ffe2c3"/><stop offset="1" stop-color="#ffb870"/></linearGradient><linearGradient id="id4" gradientUnits="userSpaceOnUse" x1="968.681" y1="961.112" x2="1022.87" y2="961.112"><stop offset="0" stop-color="#bf2ab5"/><stop offset="1" stop-color="#7513a3"/></linearGradient><linearGradient id="id5" gradientUnits="userSpaceOnUse" xlink:href="#id4" x1="928.37" y1="565.194" x2="1054.72" y2="565.194"/><linearGradient id="id6" gradientUnits="userSpaceOnUse" xlink:href="#id3" x1="1313.8" y1="605.291" x2="1252.04" y2="605.291"/><linearGradient id="id7" gradientUnits="userSpaceOnUse" xlink:href="#id2" x1="914.597" y1="424.715" x2="914.597" y2="332.171"/><linearGradient id="id8" gradientUnits="userSpaceOnUse" xlink:href="#id4" x1="981.623" y1="659.571" x2="1072.69" y2="659.571"/><linearGradient id="id9" gradientUnits="userSpaceOnUse" xlink:href="#id4" x1="997.497" y1="951.218" x2="1042.41" y2="951.218"/></defs><g id="Layer_x0020_1"><g id="_2545339921280"><path class="fil0" d="M56 1469c231 133 481 281 722 422 110 55 235 11 249 4l660-430c-17 6-38 10-60 10-63 0-114-28-114-63 0-34 51-62 114-62 62 0 113 28 113 62 0 9-3 17-9 25l189-123c-12 7-29 12-49 12-37 0-67-17-67-37 0-21 30-37 67-37s67 16 67 37c0 8-5 16-14 22l60-38-954-553s-665 390-970 568c-17 10-124 112-4 181z"/><path d="M56 1423c231 133 481 282 722 422 110 55 235 11 249 4l957-622-954-553s-665 390-970 569c-17 9-124 111-4 180z" fill="#dfeefb"/><path class="fil2" d="M1478 1306l-491-284v-19l651 192v18z"/><path class="fil3" d="M1478 1306l-491-284v-19l491 282v19z"/><path class="fil4" d="M1478 1287l-491-284 160-92 491 284z"/><path class="fil5" d="M1161 963l-32-19v-4l53 7v4z"/><path class="fil6" d="M1161 959l-32-19 20-12 33 19z"/><path class="fil5" d="M1196 983l-33-19v-3l53 6v4z"/><path class="fil6" d="M1196 979l-33-18 21-13 32 19z"/><path class="fil5" d="M1230 1003l-32-18v-4l53 6v4z"/><path class="fil6" d="M1230 999l-32-18 21-12 32 18z"/><path class="fil5" d="M1265 1023l-32-18v-4l53 6v4z"/><path class="fil6" d="M1265 1019l-32-18 20-12 33 18z"/><path class="fil5" d="M1300 1043l-33-18v-4l53 6v4z"/><path class="fil6" d="M1300 1039l-33-18 21-12 32 18z"/><path class="fil5" d="M1334 1063l-32-18v-4l53 6v4z"/><path class="fil6" d="M1334 1059l-32-18 21-12 32 18z"/><path class="fil5" d="M1369 1083l-32-18v-4l53 6v4z"/><path class="fil6" d="M1369 1079l-32-18 20-12 33 18z"/><g><path class="fil5" d="M1404 1103l-33-18v-4l53 6v4z"/><path class="fil6" d="M1404 1099l-33-18 21-12 32 18z"/></g><g><path class="fil5" d="M1438 1123l-32-18v-4l53 6v4z"/><path class="fil6" d="M1438 1120l-32-19 21-12 32 18z"/></g><g><path class="fil5" d="M1473 1144l-33-19v-4l54 6v4z"/><path class="fil6" d="M1473 1140l-33-19 21-12 33 18z"/></g><g><path class="fil5" d="M1508 1164l-33-19v-4l53 7v3z"/><path class="fil6" d="M1508 1160l-33-19 21-12 32 19z"/></g><g><path class="fil5" d="M1542 1184l-32-19v-4l53 7v4z"/><path class="fil6" d="M1542 1180l-32-19 21-12 32 19z"/></g><g><path class="fil5" d="M1577 1204l-33-19v-4l54 7v4z"/><path class="fil6" d="M1577 1200l-33-19 21-12 33 19z"/></g><g><path class="fil5" d="M1153 990l-51-30v-4l72 18v4z"/><path class="fil6" d="M1153 986l-51-30 20-12 52 30z"/><path class="fil5" d="M1187 1010l-32-19v-4l53 7v4z"/><path class="fil6" d="M1187 1006l-32-19 21-12 32 19z"/><path class="fil5" d="M1222 1030l-32-19v-4l53 7v4z"/><path class="fil6" d="M1222 1026l-32-19 21-12 32 19z"/><path class="fil5" d="M1257 1050l-33-19v-4l54 7v4z"/><path class="fil6" d="M1257 1046l-33-19 21-12 33 19z"/><path class="fil5" d="M1291 1070l-32-19v-4l53 7v4z"/><path class="fil6" d="M1291 1066l-32-19 21-12 32 19z"/><path class="fil5" d="M1326 1090l-32-18v-4l53 6v4z"/><path class="fil6" d="M1326 1086l-32-18 21-13 32 19z"/><g><path class="fil5" d="M1361 1110l-33-18v-4l54 6v4z"/><path class="fil6" d="M1361 1106l-33-18 21-12 33 18z"/></g><g><path class="fil5" d="M1395 1130l-32-18v-4l53 6v4z"/><path class="fil6" d="M1395 1126l-32-18 21-12 32 18z"/></g><g><path class="fil5" d="M1430 1150l-32-18v-4l53 6v4z"/><path class="fil6" d="M1430 1146l-32-18 21-12 32 18z"/></g><g><path class="fil5" d="M1465 1170l-33-18v-4l54 6v4z"/><path class="fil6" d="M1465 1166l-33-18 21-12 33 18z"/></g><g><path class="fil5" d="M1499 1190l-32-18v-4l53 6v4z"/><path class="fil6" d="M1499 1186l-32-18 21-12 32 18z"/></g><g><path class="fil5" d="M1550 1220l-48-28v-4l69 16v4z"/><path class="fil6" d="M1550 1216l-48-28 21-12 48 28z"/></g></g><g><path class="fil5" d="M1113 998l-39-22v-4l57 9v4z"/><path class="fil6" d="M1114 995l-40-23 21-12 40 23z"/><path class="fil5" d="M1145 1017l-33-19v-4l53 7v4z"/><path class="fil6" d="M1145 1013l-33-19 21-12 32 19z"/><path class="fil5" d="M1179 1037l-32-19v-4l53 7v4z"/><path class="fil6" d="M1179 1033l-32-19 21-12 32 19z"/><path class="fil5" d="M1214 1057l-33-19v-4l54 7v4z"/><path class="fil6" d="M1214 1053l-33-19 21-12 33 19z"/><path class="fil5" d="M1249 1077l-33-19v-4l53 7v4z"/><path class="fil6" d="M1249 1073l-33-19 21-12 32 19z"/><path class="fil5" d="M1283 1097l-32-19v-4l53 7v4z"/><path class="fil6" d="M1283 1093l-32-19 21-12 32 19z"/><path class="fil5" d="M1318 1117l-33-19v-4l54 7v4z"/><path class="fil6" d="M1318 1113l-33-19 21-12 33 19z"/><g><path class="fil5" d="M1353 1137l-33-19v-4l53 7v4z"/><path class="fil6" d="M1353 1133l-33-19 21-12 32 19z"/></g><g><path class="fil5" d="M1387 1157l-32-19v-4l53 7v4z"/><path class="fil6" d="M1387 1153l-32-19 21-12 32 19z"/></g><g><path class="fil5" d="M1422 1177l-33-19v-4l54 7v4z"/><path class="fil6" d="M1422 1173l-33-19 21-12 33 19z"/></g><g><path class="fil5" d="M1457 1197l-33-19v-4l53 7v4z"/><path class="fil6" d="M1457 1193l-33-19 21-12 32 19z"/></g><g><path class="fil5" d="M1491 1217l-32-19v-4l53 7v4z"/><path class="fil6" d="M1491 1213l-32-19 21-12 32 19z"/></g><g><path class="fil5" d="M1522 1235l-29-17v-3l50 4v4z"/><path class="fil6" d="M1522 1231l-29-16 21-13 29 17z"/></g></g><g><path class="fil5" d="M1102 1024l-56-32v-4l77 20v3z"/><path class="fil6" d="M1102 1020l-56-32 21-12 56 32z"/><path class="fil5" d="M1136 1044l-32-19v-4l53 7v4z"/><path class="fil6" d="M1136 1040l-32-19 21-12 32 19z"/><path class="fil5" d="M1171 1064l-32-19v-4l53 7v4z"/><path class="fil6" d="M1171 1060l-32-19 21-12 32 19z"/><path class="fil5" d="M1206 1084l-33-19v-4l54 7v4z"/><path class="fil6" d="M1206 1080l-33-19 21-12 33 19z"/><path class="fil5" d="M1240 1104l-32-19v-4l53 7v4z"/><path class="fil6" d="M1240 1100l-32-19 21-12 32 19z"/><path class="fil5" d="M1275 1124l-32-19v-4l53 7v4z"/><path class="fil6" d="M1275 1120l-32-19 21-12 32 19z"/><g><path class="fil5" d="M1310 1144l-33-19v-4l54 7v4z"/><path class="fil6" d="M1310 1140l-33-19 21-12 33 19z"/></g><g><path class="fil5" d="M1344 1164l-32-19v-4l53 7v4z"/><path class="fil6" d="M1344 1160l-32-19 21-12 32 19z"/></g><g><path class="fil5" d="M1379 1184l-32-19v-4l53 7v4z"/><path class="fil6" d="M1379 1180l-32-19 21-12 32 19z"/></g><g><path class="fil5" d="M1414 1204l-33-19v-4l54 7v4z"/><path class="fil6" d="M1414 1200l-33-19 21-12 33 19z"/></g><g><path class="fil5" d="M1448 1224l-32-19v-4l53 7v4z"/><path class="fil6" d="M1448 1220l-32-19 21-12 32 19z"/></g><g><path class="fil5" d="M1495 1251l-44-26v-4l65 14v4z"/><path class="fil6" d="M1495 1247l-44-26 21-12 44 26z"/></g></g><g><path class="fil5" d="M1059 1030l-39-23v-4l60 11v4z"/><path class="fil6" d="M1059 1026l-39-23 20-12 40 23z"/><path class="fil5" d="M1094 1050l-33-18v-4l53 6v4z"/><path class="fil6" d="M1094 1046l-33-18 21-12 32 18z"/><path class="fil5" d="M1128 1070l-32-18v-4l53 6v4z"/><path class="fil6" d="M1128 1066l-32-18 21-12 32 18z"/><path class="fil5" d="M1336 1190l-206-118v-4l226 106v4z"/><path class="fil6" d="M1336 1187l-206-119 21-12 205 118z"/><g><path class="fil5" d="M1371 1211l-33-19v-4l54 7v4z"/><path class="fil6" d="M1371 1207l-33-19 21-12 33 19z"/></g><g><path class="fil5" d="M1405 1231l-32-19v-4l53 7v4z"/><path class="fil6" d="M1405 1227l-32-19 21-12 32 19z"/></g><g><path class="fil5" d="M1440 1251l-32-19v-4l53 7v4z"/><path class="fil6" d="M1440 1247l-32-19 21-12 32 19z"/></g><g><path class="fil5" d="M1468 1267l-26-15v-4l47 3v4z"/><path class="fil6" d="M1468 1263l-26-15 21-12 26 15z"/></g></g><g><path class="fil3" d="M1214 908v-31l23 11 39-23c13-7 34-7 47 0l398 230 23-11v31c0 6-3 11-10 15l-52 30c-13 8-34 8-47 0l-411-237c-7-4-10-9-10-15z"/><path class="fil2" d="M1721 1095l23-11v31c0 6-3 11-10 15l-52 30c-6 4-15 6-23 6v-107l62 36z"/><path class="fil4" d="M1682 1127c-13 8-34 8-47 0l-411-237c-13-8-13-20 0-27l52-31c13-7 34-7 47 0l411 238c13 7 13 19 0 27l-52 30z"/><path class="fil2" d="M1557 1045l29-16V882l-185-107z"/><path class="fil3" d="M1372 938l185 107V898l-185-106z"/><path d="M1068 17l26-15c1-1 2-1 2-1 3-1 6-1 10 1l774 447c8 5 15 16 15 26v594c0 5-2 9-4 10-1 0-1 1-2 1l-26 15-6-29 8 3-759-438c-8-5-15-16-15-26V33l-23-16z" fill="#2f3f75" fill-rule="nonzero"/><path class="fil2" d="M1094 2c1-1 2-1 2-1 3-1 6-1 10 1l774 447c4 2 7 5 10 9l-518 327-266-154c-8-5-15-16-15-26V33l-23-16 26-15z"/><g><path class="fil8" d="M1063 621c0 10 7 21 15 26l774 447c9 5 15 1 15-9V491c0-10-6-21-15-26L1078 18c-8-5-15-1-15 9v594z"/></g><g><path class="fil9" d="M1078 578l775 447V490L1078 42z"/></g><g><path class="fil4" d="M1085 47v525l768 443v10l-775-447V42z"/></g></g><g><path class="fil2" d="M603 1046l-28-18V328L985 91l32 16z"/><path class="fil4" d="M575 328v700l28 18 243-550-271-168z"/><path class="fil9" d="M1017 807l-414 239V346l414-239z"/><path class="fil10" d="M826 597L640 704v-14l186-107z"/><path class="fil11" d="M918 566L640 726v-5l278-160zM918 586L640 746v-5l278-160zM918 606L640 766v-4l278-161zM918 626L640 786v-4l278-161zM918 646L640 807v-5l278-161z"/><g><path class="fil10" d="M826 740L640 847v-14l186-108z"/><path class="fil11" d="M918 708L640 869v-5l278-160zM918 729L640 889v-5l278-160zM918 749L640 909v-5l278-160zM918 769L640 929v-5l278-160zM918 789L640 949v-5l278-160z"/></g></g><path d="M1384 1110c-31 17-81 17-112 0-31-18-31-47 0-65s81-18 112 0 31 47 0 65z" fill="#e9e9e9" fill-rule="nonzero"/><g><path class="fil13" d="M945 520s-6-7-7-13c-2-6-5-11-9-14s-15-10-16-10c-2 0-5 1-1 4 3 3 9 6 9 9 0 1-6 11-2 17 5 6 2 1 15 15 11 8 11-8 11-8z"/><path class="fil14" d="M942 513c-6 1-13 5-15 11 1 2 4 5 7 9 13 8 13-13 13-13s-2-3-5-7z"/><path d="M1055 588s-53-15-66-24c-12-8-43-47-43-47s-15 0-18 14c15 28 39 46 50 56 12 9 52 25 64 26 13 1 13-25 13-25z" fill="url(#id5)" fill-rule="nonzero"/><path class="fil13" d="M923 690s-5-2-12 2c-6 4-12 3-16 2-4 0-10 8-2 12s18 4 23 3c3-1 8-4 10-4 2-1-3-15-3-15z"/><path class="fil10" d="M866 720l-26-58 83-36 30 56z"/><path class="fil9" d="M870 713l-22-49 71-31 25 48z"/><path d="M1045 788s8 25 4 44c-3 19-10 63-11 75-1 13 3 25 2 32s-31 14-31 14 8-6 11-17c3-12 5-14 5-19 0-6-2-95-2-117-1-23 22-12 22-12z" fill="#f9ba9c" fill-rule="nonzero"/><path class="fil13" d="M995 796s1 16 3 22c1 7 6 91 4 108s-15 40-21 44c-5 4-1 5 7 4s11-13 15-18c3-5 16-11 16-11s-2-8-3-11 3-59 7-72 3-31 2-38c-2-6 3-28 3-28h-33z"/><path d="M1034 971h4s3-21 4-24c1-4 2-13-5-15-6-3-10 2-13 7-2 5-12 19-18 22s-8 6-8 6-3 2 4 2 17 0 21-1c4-2 4-6 4-9s3-7 5-8c1 11 2 20 2 20z" fill="url(#id9)" fill-rule="nonzero"/><path d="M1023 952s-1-11-9-11c-8 1-12 9-14 16-3 6-4 13-11 14-8 1-8 0-8 0s-8 0-12 3c2 5 13 5 22 5s10 0 12-4c1-4 4-16 9-16 2 10 3 22 3 22h3s3-16 4-22c1-5 1-5 1-7z" fill="url(#id4)" fill-rule="nonzero"/><path class="fil19" d="M985 730l3 67s7 10 29 8c23-1 37-12 37-12s1-14 3-26 7-32 7-32l-79-5z"/><path d="M1023 575s-29 17-33 35c-1 5-10 12-6 29s10 39 10 49c0 9-12 35-12 48 27 19 70 17 91 0-1-37-8-48-16-65-9-17 1-32 5-47 5-16 13-37 2-48-10-11-31-5-41-1z" fill="url(#id8)" fill-rule="nonzero"/><path class="fil13" d="M1008 510s0 5-3 14c-4 9-6 19-3 28 2 8 5 12 13 12 4 1 6 5 6 11 12 5 25-2 25-4-2-8-2-11 1-16 2-6 5-29-5-38s-34-7-34-7z"/><path class="fil19" d="M1008 527s-16-10-7-22c8-12 20-14 31-15 10-1 30 3 35 20 7 7 11 31 13 49s-16 37-43 37-30-18-30-18 14 2 17-12c2-15-3-33-4-37-5 2-10-1-12-2z"/><path class="fil13" d="M915 700s-10-3-11-7c-1-3 4-1 7 0 2 2 8-3 13 2-1 5-9 5-9 5z"/><g><path class="fil14" d="M931 686l-9 2s-3 4-1 12c3 7 5 8 5 8l9-3-4-19z"/><path d="M999 597c-10 2-15 23-12 37 3 13 4 27-6 35-13 3-47 14-54 17-3 11 3 18 8 22 15-5 51-14 58-17 3-2 17-9 21-33 3-13 5-34 1-46-2-5-7-17-16-15z" fill="#bf2ab5" fill-rule="nonzero"/></g></g><g><path class="fil2" d="M839 331v153l160-92V239z"/><path class="fil14" d="M881 426l90-52v-1l-90 52zM881 394l90-52v-1l-90 52zM881 361l90-51v-2l-90 52zM881 329l90-52v-1l-90 52z"/><g><path class="fil14" d="M881 442l90-52v-1l-90 52zM881 410l90-52v-1l-90 51zM881 377l90-52v-1l-90 52zM881 345l90-52v-1l-90 52z"/></g><g><path class="fil22" d="M954 398l12-6v-78l-12 6z"/><path class="fil10" d="M954 398l12-6v-67l-12 6z"/><path class="fil22" d="M932 412l11-7V298l-11 7z"/><path class="fil11" d="M932 412l11-7v-76l-11 7z"/><g><path class="fil22" d="M909 425l11-7v-97l-11 7z"/><path fill="url(#id7)" fill-rule="nonzero" d="M909 425l11-7v-86l-11 7z"/></g><g><path class="fil22" d="M886 438l12-7v-92l-12 7z"/><path class="fil24" d="M886 438l12-7v-78l-12 7z"/></g></g><g><path class="fil10" d="M850 404l17-9v-9l-17 9z"/><path class="fil11" d="M850 423l17-10v-9l-17 10z"/><path fill="url(#id2)" fill-rule="nonzero" d="M850 441l17-10v-9l-17 10z"/><path class="fil24" d="M850 459l17-9v-9l-17 9z"/></g></g><g><path class="fil3" d="M510 623l-23-16c-3-3-8-3-14 1L259 731c-10 6-18 20-18 31v454c0 5 2 9 5 11l25 17-2-24 204-117c10-6 18-20 18-32V640l19-17z"/><path class="fil4" d="M491 640l19-17-23-16c-3-3-8-3-14 1L259 731c-5 3-10 9-14 15l246 150V640z"/><path fill="#8970f2" fill-rule="nonzero" d="M473 608L259 731z"/><path class="fil2" d="M516 1088c0 12-8 26-18 32l-214 123c-10 6-18 1-18-11V779c0-11 8-25 18-31l214-124c10-5 18-1 18 11v453z"/><path class="fil9" d="M499 1068c0 10-7 22-15 27l-186 107c-8 5-15 1-15-9V800c0-10 7-23 15-28l186-107c8-5 15 0 15 10v393z"/><path class="fil2" d="M258 890c0 4-4 6-7 4l1-1c-3-1-5-6-5-9l-2-45c0-3 4-5 7-4 3 2 6 7 6 10v45z"/><path class="fil4" d="M256 892c0 3-3 5-6 3s-5-6-5-10v-45c0-4 2-5 5-3s6 6 6 9v46z"/><path class="fil2" d="M258 951c0 4-4 6-7 4l1-1c-3-2-5-6-5-9l-2-45c0-3 4-6 7-4s6 6 6 10v45z"/><path class="fil4" d="M256 952c0 4-3 5-6 4-3-2-5-7-5-10v-45c0-4 2-5 5-3 3 1 6 6 6 9v45z"/><path class="fil2" d="M258 1192c0 4-4 6-7 4l1-1c-3-2-5-6-5-9l-2-45c0-3 4-6 7-4s6 6 6 10v45z"/><path class="fil4" d="M256 1193c0 4-3 5-6 4-3-2-5-7-5-10v-45c0-4 2-5 5-3 3 1 6 6 6 9v45z"/><g><path class="fil2" d="M287 737c-3 2-9 2-12 0-4-2-4-5 0-7 3-2 9-2 12 0s3 5 0 7z"/></g><g><path class="fil2" d="M322 716c-4 2-9 2-12 0-4-2-4-5 0-7 3-2 8-2 12 0 3 2 3 5 0 7z"/></g><g><path class="fil2" d="M470 870l-48 28c-2 1-4 2-6 4-6-24-28-32-53-17-31 17-55 60-55 95s24 49 55 32c25-15 47-48 53-79 2-1 4-1 6-2l48-28c8-4 14-15 14-24 0-10-6-13-14-9zM363 995c-23 13-41 3-41-23s18-58 41-71c22-12 40-2 40 24s-18 57-40 70z"/></g></g><g><path fill="#fff9ca" fill-rule="nonzero" d="M647 1186l109-63-109-63-109 63z"/><path fill="#f9ed97" fill-rule="nonzero" d="M647 1249l109-63v-63l-109 63z"/><path fill="#fbf087" fill-rule="nonzero" d="M647 1249l-109-63v-63l109 63z"/><path fill="#24efdf" fill-rule="nonzero" d="M647 1092l109-63-109-63-109 63z"/><path fill="#00e9d8" fill-rule="nonzero" d="M647 1154l109-63v-62l-109 63z"/><path fill="#00ddd3" fill-rule="nonzero" d="M647 1154l-109-63v-62l109 63z"/><g><path class="fil33" d="M647 997l109-63-109-63-109 63z"/><path class="fil10" d="M647 1060l109-63v-63l-109 63z"/><path class="fil34" d="M647 1060l-109-63v-63l109 63z"/></g><g><path class="fil4" d="M647 903l109-63-109-63-109 63z"/><path class="fil2" d="M647 966l109-63v-63l-109 63z"/><path class="fil3" d="M647 966l-109-63v-63l109 63z"/></g></g><g><g clip-path="url(#id0)"><image x="734" y="1126" width="455" height="267" xlink:href="etrack_gps_main_Images\etrack_gps_main_ImgID1.png"/></g><path class="fil8" d="M799 1178c-87 50-53 130 34 180s235 17 279-8c87-50 89-122 2-172s-228-50-315 0zm298 172c-77 45-203 45-281 0-77-45-77-118 0-162 78-45 204-45 281 0 78 44 78 117 0 162z"/><path class="fil2" d="M1165 1232v62h-4c-5 21-20 34-51 52-78 45-216 45-294 0-31-18-46-30-52-52h-5v-65c-38 47-23 106 45 145 87 50 228 50 315 0 67-39 82-95 46-142z"/><path class="fil11" d="M804 1169c-87 50-87 131 0 181 87 51 228 51 315 0 87-50 87-131 0-181-87-51-228-51-315 0zm298 172c-78 44-203 44-281 0-78-45-78-118 0-163 78-44 203-44 281 0 78 45 78 118 0 163z"/><g><path class="fil2" d="M1240 1415l-113-65c-2-2-6-1-9 1-7 4-13 14-13 22 0 2 0 4 1 5l1 1c1 2 3 3 4 3l110 64 19-31z"/><path class="fil4" d="M1469 1519l-285-163v1c-6-4-14-4-24 1-18 11-32 36-32 57 0 5 1 8 3 12l2 4c3 3 9 6 10 6l278 160 48-78z"/><path class="fil2" d="M1478 1540c0 21-14 46-32 56s-33 2-33-19c0-20 15-46 33-56s32-2 32 19z"/></g></g><g><path class="fil2" d="M454 66L103 269c-23 13-42 46-42 72v214c0 27 34 49 57 35l131-95 148 47V410l57-33c23-14 42-46 42-73l25-210c0-27-44-41-67-28z"/><path class="fil4" d="M480 77L129 279c-23 14-42 46-42 73v214c0 26 19 37 42 24l145-84 148 47V421l58-34c23-13 42-46 42-72V101c0-27-19-37-42-24z"/><g><path class="fil35" d="M469 153L149 341v12l320-188zM469 193L149 381v12l320-188zM469 233L149 421v12l320-188zM469 273L149 461v12l320-188zM469 313L149 501v12l320-188z"/></g></g><g><path d="M1109 87l712 410c5 2 9 10 9 17v36l-730-421V94c0-7 4-10 9-7z" fill="#f5f5f5"/><path fill="#a2d9f7" d="M1101 143l730 421 3 425-730-421z"/><g clip-path="url(#id1)"><path id="1" fill="#e7e7e6" d="M1091 4l5 694 747 430-5-694z"/><path class="fil39" d="M1405 807l-295-132c-6-3-10-3-14-1v24l359 206-28-73c-4-10-13-20-22-24z"/><path d="M1829 625l-21-32h2l1-1h3l1-1h4l1-1h11l16 33h-12v1h-4v1h-2zm-36 55l-29-21v-3l1-3v-2l1-3 1-3 1-2v-3l1-2 1-3 1-2 1-3 1-2 1-2 1-3 2-2 1-2 1-2 2-2 1-2 2-2 1-2 2-2 2-2 2-1 1-2 2-1 2-2 2-1 3-1 2-2 2-1 3-1 21 32-2 1-2 1-1 1-2 1-2 1-1 1-2 1-1 1-2 1-1 2-2 1-1 2-1 1-1 2-1 2-2 2-1 1-1 2-1 2-1 2-1 2v2l-1 2-1 2-1 3v2l-1 2-1 2v3l-1 2v3l-1 2zm-5 88l-30-19v-2l1-3v-34l1-3v-17l1-3v-12l1-2v-6l1-3v-3l1-2 29 21v5l-1 2v6l-1 2v8l-1 3v13l-1 3v37l-1 3v6zm-21 83l-27-28 1-2 1-1 1-2 1-2 1-2 1-2 1-2 1-2 1-2 1-2v-2l1-2 1-2v-3l1-2v-2l1-3v-2l1-3v-2l1-3v-5l1-2v-8l1-3v-11l30 19v8l-1 3v9l-1 3v5l-1 3v3l-1 3v2l-1 3v3l-1 2v3l-1 3-1 2-1 3-1 2v3l-1 2-1 2-2 3-1 2-1 2-1 3-1 2-2 2-1 2zm-48 39l-25-29 2-2 1-1 2-1 1-1 2-2 1-1 2-1 2-1 1-1 2-1 1-1 2-1 1-1 2-2 1-1 2-1 1-1 2-1 1-1 2-1 1-1 2-1 1-2 1-1 2-1 1-1 1-1 1-2 2-1 1-1 1-2 1-1 27 28-2 1-1 2-1 2-2 1-1 2-1 1-2 1-1 2-2 1-1 1-2 2-1 1-2 1-2 1-1 1-2 1-1 2-2 1-1 1-2 1-2 1-1 1-2 1-1 1-2 1-1 1-2 1-1 2-2 1-1 1-1 1-2 1zm-52 138l-29-20v-5l1-6 1-5v-6l1-5 1-6 1-5 1-5 1-6 1-5 1-5 1-5 2-5 1-5 1-5 2-5 2-4 1-5 2-5 2-4 2-4 3-5 2-4 2-4 3-4 2-4 3-4 3-3 3-4 3-3 4-3 3-3 25 29-3 3-3 3-3 3-2 3-3 3-2 4-3 3-2 4-2 4-3 3-2 4-1 4-2 4-2 5-2 4-1 4-2 5-1 4-1 5-2 5-1 4-1 5-1 5-1 5-1 5-1 5v5l-1 6-1 5v5l-1 6-1 5z" fill="#b5d1ee" fill-rule="nonzero"/><path class="fil41" d="M1095 557v-15h1v1h2v15h-2v-1h-1zm15-450l-5 12-1-1h-1v-1h-1v-1h-1l-1-1h-1v-1h-1v-1h-1l-1-1h-1v-1h-1l-1-1h-1v-1h-1l2-14h1v1h1l1 1 1 1h1l1 1h1v1h1v1h1l1 1 1 1h1v1h1v1h2v1h1v1h1zm31 32l-9 7-1-1-1-1v-1h-1l-1-1-1-1-1-1v-1l-1-1-1-1-1-1-1-1-1-1-1-1-1-1-1-1-1-1-1-1-1-1-1-1-1-1h-1v-1l-1-1-1-1-1-1h-1l-1-1-1-1-1-1 5-12 1 1 1 1 1 1 1 1 1 1 1 1 1 1 1 1h1l1 1 1 1 1 1 1 1 1 1 1 1 1 1 1 1 1 1 1 1 1 1 1 1 1 2 1 1 1 1 1 1 1 1 1 1 1 1 1 1v1l1 1 1 1zm40 74l-16-5v-2l-1-2-1-2v-2l-1-2-1-2v-2l-1-2-1-2-1-2-1-1-1-2-1-2-1-2-1-2-1-2-1-2-1-2-1-2-1-2-1-2-2-2-1-2-1-2-1-2-2-2-1-2-1-1-2-2-1-2-2-2-1-2 9-7 2 2 2 3 1 2 2 2 2 2 1 2 2 3 1 2 2 2 1 3 2 2 1 2 2 2 1 3 1 2 2 2 1 3 1 2 1 2 1 3 2 2 1 2 1 3 1 2 1 2v3l1 2 1 2 1 3 1 2v2l1 3zm5 34l-16-8v-5l-1-1v-8l-1-1v-6l-1-1v-3l-1-1v-3l-1-1v-1l16 5v1l1 1v4l1 1v3l1 2v4l1 1v7l1 1v9zm2 14l-16-7v-1h-1v-8h-1v-6l16 8v2h1v9l1 1v2zm47 94l-12 3-2-4-3-3-2-3-2-4-2-3-2-4-2-3-2-3-2-4-2-3-2-4-2-3-2-3-2-3-1-4-2-3-2-3-2-4-1-3-2-3-1-3-2-3-1-4-1-3-1-3-2-3-1-3-1-3v-3l-1-3-1-3v-3l16 7v2l1 2v3l1 2 1 3 1 2 1 3 1 2 1 3 1 3 1 3 1 2 2 3 1 3 2 3 1 3 2 3 1 3 2 3 2 3 2 3 2 4 1 3 2 3 2 3 2 3 2 4 2 3 3 3 2 4 2 3 2 4zm65 135l-16-6-1-4-1-4-1-4-1-4-1-4-2-4-1-4-2-3-1-4-2-4-2-4-1-4-2-4-2-4-2-4-2-4-2-4-3-4-2-4-2-4-2-4-3-4-2-4-2-4-3-4-2-4-2-4-3-4-2-4-2-4-3-3-2-4 12-3 2 3 3 4 2 4 3 4 2 4 2 4 3 4 2 4 3 4 2 5 3 4 2 4 2 4 3 4 2 5 2 4 2 4 3 4 2 5 2 4 2 5 2 4 1 4 2 5 2 4 2 5 1 4 1 4 2 5 1 4 1 5 1 4zm-43 104l-12-18 3-1 3-1 3-2 3-2 2-1 3-2 2-2 2-2 3-2 2-3 2-2 1-3 2-2 2-3 1-3 1-3 2-3 1-3 1-3v-4l1-3 1-3v-8l1-3v-4l-1-4v-8l-1-4v-4l-1-4 16 6 1 5 1 5v4l1 5v17l-1 4v4l-1 4v4l-1 3-1 4-2 3-1 4-1 3-2 3-2 3-2 3-2 3-2 3-2 2-3 3-2 2-3 2-2 2-3 2-3 2-4 2-3 1-3 2zm-123-17l-2-16 3 1 3 1 3 2 3 1 4 1 3 1 4 2 3 1 4 1 3 1 4 1 3 1 4 1 4 1 4 1 3 1h4l4 1h3l4 1h22l4-1h3l4-1 3-1 4-1 3-1 12 18-4 1-4 1-3 1-4 1h-4l-4 1h-24l-4-1h-4l-4-1-4-1-4-1h-4l-4-1-4-1-4-1-4-2-4-1-4-1-3-1-4-2-4-1-3-1-4-2-3-1-4-2-3-1zm-35-18l-3-17 2 1 1 1h1l1 1 1 1h1l1 1h1l1 1 1 1h1l1 1h1l1 1h1l1 1h1l2 1h1l1 1 1 1h1l1 1h1l1 1h1l1 1h1l1 1h1l1 1h2l1 1 2 16-1-1h-1l-1-1h-2l-1-1h-1l-1-1h-1l-1-1h-1l-2-1h-1l-1-1-1-1h-1l-1-1h-1l-2-1h-1l-1-1-1-1h-1l-1-1h-1l-1-1-2-1h-1l-1-1-1-1h-1l-1-1h-1 1zm-3-17l1 1h1l-2-1zm3 17l-3-17h-3l13 14-5-10-8-4 8 4 5 10-13-14h3l3 17 3 1-13-14 5 10 8 4-8-4-5-10 13 14-3-1z"/><path d="M1095 522c11 6 22 12 33 17 38 16 75 24 101 14 27-10 42-38 34-77-15-73-100-159-113-231-2-15-1-28-6-44-6-22-23-48-44-65-3-2-5-4-8-6l3 392z" fill="#b5d1ee"/><path class="fil41" d="M1181 110l-4 13-2-3-3-2-3-2-2-2-3-2-3-2-2-2-3-2-3-2-2-2-3-2-3-2-2-2-3-2-3-2-2-2-3-2-3-2-2-2-3-1-3-2-3-2-2-2-3-2-3-2-2-1-3-2-3-2-3-2-2-2-3-1-3-2 1-15 3 2 3 2 3 2 2 2 3 1 3 2 3 2 3 2 2 2 3 2 3 2 3 2 3 1 2 2 3 2 3 2 3 2 2 2 3 2 3 2 3 2 3 3 2 2 3 2 3 2 3 2 3 2 2 2 3 3 3 2 3 2 2 2zm120 137l-13 2-3-4-2-5-3-4-3-5-3-4-3-4-3-4-3-5-3-4-3-4-3-4-4-4-3-5-3-4-4-4-3-4-4-4-4-4-3-3-4-4-4-4-3-4-4-4-4-3-4-4-4-4-4-3-4-4-4-3-4-4-4-3-4-3 4-13 5 4 4 3 4 4 4 4 4 3 5 4 4 4 4 4 4 4 4 4 4 4 4 4 4 4 4 5 4 4 4 4 4 4 4 5 3 4 4 5 4 4 3 5 4 4 3 5 3 5 4 4 3 5 3 5 3 5 3 4 3 5 3 5zm46 85l-11 5-2-3-2-3-2-2-2-3-2-3-1-3-2-3-2-3-1-2-2-3-1-3-2-3-1-3-2-3-1-2-1-3-2-3-1-3-2-2-1-3-1-3-2-3-1-2-1-3-2-3-1-2-1-3-2-3-1-2-1-3-2-2-1-3 13-2 1 3 2 3 1 3 2 3 1 2 2 3 1 3 2 3 1 2 1 3 2 3 1 3 1 2 2 3 1 3 1 3 2 2 1 3 1 3 2 2 1 3 1 2 2 3 1 3 2 2 1 3 2 2 1 3 2 2 1 2 2 3 2 2zm100 90l-2 14-3-3-4-2-3-3-4-2-3-3-4-2-4-3-3-3-4-2-3-3-4-3-4-2-3-3-4-3-3-3-4-3-4-3-3-3-4-3-3-4-3-3-4-3-3-3-4-4-3-3-3-4-3-4-3-3-3-4-3-4-3-4-3-4 11-5 2 4 3 3 2 3 3 3 2 4 3 3 3 3 3 3 3 3 3 3 3 3 3 3 3 3 3 2 3 3 4 3 3 3 3 2 3 3 4 3 3 2 4 3 3 3 4 2 3 3 3 2 4 3 3 2 4 3 3 2 4 3 3 2zm392 288l-394-274 2-14 394 274-2 14z"/><path class="fil39" d="M1303 321c-11-17-22-43-35-60-12-16-28-25-41-24-18 2-23 21-13 45 12 27 31 54 49 81 40 61 67 125 79 183 1 10 14 18 17 11l48-101c4-9-3-27-17-37-32-26-64-63-87-98z"/><path class="fil41" d="M1265 208l-90 3-9-18 90-3h3l6 18zm-9-18h3-3zm196 91l-189-74-4-17 190 74 5 17h-2zm2 0h-2 2zm145 23l-145-23-7-18 145 23 7 18z"/><path class="fil41" d="M1348 583l-3 13-3-2-2-2-2-1-2-2-3-2-2-2-2-2-2-2-2-2-2-2-2-2-2-2-2-3-2-2-2-2-2-2-2-3-2-2-1-2-2-3-2-2-1-2-2-3-2-2-1-3-2-2-1-3-2-2-1-3-1-2-2-3-1-2h14l1 2 1 2 1 2 1 2 1 2 2 2 1 2 1 2 1 2 2 2 1 2 2 2 1 2 1 2 2 2 1 1 2 2 2 2 1 2 2 2 1 2 2 1 2 2 1 2 2 1 2 2 2 1 1 2 2 1 2 2 2 1 2 2zm-3 13h-1 1zm5-11l-2 13h-1v-1h-2v-1l3-13 1 1h1v1zm60 0l16 14-1 2-1 2-2 2-1 2-2 1-2 2-1 1-2 1-2 1-2 1-3 1-2 1h-2l-3 1h-7l-3-1h-6l-2-1-3-1-3-1-3-1-3-1-3-2-4-1-3-2-3-2-3-2-3-2-3-2 2-13 2 1 3 2 2 1 3 2 2 1 3 1 2 1 2 1 3 1 2 1h2l2 1h2l3 1h8l2-1h3l2-1 1-1 2-1h1l2-1 1-2 1-1 2-1 1-2 1-1v-2zm82-122l-66 136-16-14 66-136 16 10v4zm0-4l1 2-1 2v-4zm-46-252l46 252-16-7-46-251 16 6z"/><path class="fil41" d="M1483 923l-121-320 15 2 121 321z"/><path class="fil41" d="M1442 786l402 286-3 14-402-286v-15l3 1zm-3-1h1l2 1-3-1zm-344-148l344 148 3 16-345-147-2-17z"/><path class="fil41" d="M1654 574l15-238 16 10-14 239-1 1-16-12zm17 11v1h-1l1-1zm-82 167l66-179 15 13-65 179-16-12v-1zm0 1v-1 1zm-22 130l22-130 16 12-22 129-16-11zM1321 299l-107 32-5-8 107-32zM1362 455l1 7-3-1-3-1-3-1-3-1-3-1-3-1-2-1-3-1-3-1-3-1h-2l-3-1h-5l-3-1h-15l-2 1h-2l-2 1h-2l-2 1-2 1-2 1-2 1-1 1-2 1-2 2-6-8 2-1 1-2 2-1 2-1 2-1 2-1 3-1h2l2-1h2l3-1h18l3 1h3l3 1h3l3 1 2 1 3 1 3 1 3 1 4 1 3 1 3 1 3 2 3 1zm96 67l-2 6-3-3-3-2-3-3-3-2-3-3-2-2-3-2-3-3-3-2-3-2-3-3-3-2-3-2-3-2-3-2-3-2-3-3-2-2-3-2-3-2-3-1-3-2-3-2-3-2-3-2-3-1-3-2-3-2-3-1-3-2-2-1-3-2-1-7 3 2 3 1 3 2 3 1 3 2 3 2 3 1 3 2 3 2 3 2 3 2 3 2 3 2 3 2 3 2 3 2 4 3 3 2 3 2 3 2 3 3 3 2 2 2 3 3 3 2 3 2 3 3 3 2 3 3 3 2 3 3 3 2z"/><path class="fil41" d="M1347 454l-86-139 5-1 87 139z"/><path class="fil43" d="M1437 355l-88-41v-43l88 50zM1371 263v11l65 38v-23zM1338 278l-25-14v-26l25 10z"/><path class="fil39" d="M1457 402c-1-6-4-14-10-19-3-4-7-5-11-7-6-2-11-4-17-7-5-2-10-4-14-3-4 0-7 3-5 8 0 4 3 8 7 11 3 3 7 6 10 8 12 8 23 16 35 24l3 2c2 1 4 1 6 1-3-6-3-12-4-18z"/><path class="fil41" d="M1392 346l4 8h-6l-1 1h-2l-1 1h-1v1h-1v1h-1l-1 1v1l-1 1-1 1v1l-1 1v6l-8-5v-3l1-1v-3l1-1v-1l1-1v-1l1-1v-1h1v-1l1-1h1l1-1 1-1h1l1-1h2l1-1h7zm21 6l1 7h-2l-1-1h-1l-1-1h-2l-1-1h-2l-1-1h-3l-1-1h-3l-4-8h5l1 1h3l1 1h2v1h3v1h2l1 1h2l1 1zm57 29v6l-1-1-2-1-2-1-2-1-1-1-2-1-2-1-2-1-2-1h-1l-2-1-2-1-2-1-1-1-2-1-2-1-2-1-1-1-2-1h-2l-2-1-2-1-1-1-2-1h-2l-2-1-1-1-2-1h-2l-2-1-1-1-2-1-1-7h1l2 1 2 1 2 1 2 1h1l2 1 2 1 2 1 2 1h1l2 1 2 1 2 1 2 1 1 1 2 1 2 1 2 1h2l1 1 2 1 2 1 2 1 2 1 2 1 1 1 2 1 2 1 2 1 2 1 1 2z"/><path class="fil43" d="M1411 228l-121-69v-40l121 69zM1246 120l-32-18V75l32 18zM1200 94l-32-18V48l32 19zM1155 68l-32-18V22l31 19z"/><path class="fil41" d="M1257 139l6 7-1 1-1 1-2 1h-1l-1 1h-3l-1 1h-18l-2-1h-5l-2-1h-2l-1-1h-4l-2-1h-1l-2-1h-2l-2-8h1l2 1h2l1 1h4l2 1h3l2 1h3l2 1h16l1-1h3l1-1h1l1-1h1l1-1zm10-21l7 5v4l-1 1v3l-1 1v2l-1 1v2h-1v2h-1v1l-1 1-1 1v1h-1v1h-1v1h-1v1h-1l-6-7 1-1 1-1 1-1 1-1 1-1v-1l1-1v-1l1-1v-2l1-1v-3h1v-4l1-1v-1zm0-13l8 5v7h-1v6l-7-5v-13z"/><path class="fil39" d="M1266 177c-3-2-5-1-5 2 0 2 2 6 5 8 3 1 5 0 5-2 0-3-2-6-5-8zM1290 186c-2-1-5 0-5 2 0 3 3 6 6 8 2 2 5 1 5-2 0-2-3-6-6-8zM1425 236c-3-1-5 0-5 2 0 3 2 6 5 8s5 1 5-2-2-6-5-8zM1213 123c-3-2-5-1-5 2 0 2 2 6 5 7 3 2 5 1 5-1 0-3-2-7-5-8zM1101 14c-3-2-5-1-5 2 0 2 2 6 5 7 3 2 5 1 5-1 0-3-2-7-5-8zM1179 174c-3-1-5 0-5 2 0 3 2 6 5 8s5 1 5-2c0-2-2-6-5-8zM1230 219c-3-1-5-1-5 2s2 6 5 8c3 1 5 1 5-2s-2-6-5-8zM1477 295c-2-1-5 0-5 2 0 3 3 6 5 8 3 2 6 1 6-2s-3-6-6-8zM1598 451c-3-2-5-1-5 1 0 3 2 6 5 8s5 1 5-2c0-2-2-6-5-7zM1631 470c-2-2-5-1-5 1 0 3 3 7 5 8 3 2 6 1 6-2 0-2-3-6-6-7zM1545 514c-3-2-5-1-5 2 0 2 3 6 5 7 3 2 6 1 5-1 0-3-2-6-5-8zM1740 760c-2-2-5-1-5 2 0 2 3 6 6 7 2 2 5 1 5-2 0-2-3-6-6-7zM1822 662c-3-2-6-1-6 2 1 2 3 6 6 7 2 2 5 1 5-2 0-2-3-6-5-7zM1696 411c-3-2-5-1-5 2 0 2 3 6 5 8 3 1 6 0 5-2 0-3-2-6-5-8zM1712 466c-3-2-5-1-5 1 0 3 2 6 5 8s5 1 5-2c0-2-2-6-5-7zM1815 525c-2-2-5-1-5 2 0 2 3 6 6 8 2 1 5 0 5-2 0-3-3-6-6-8zM1796 565c-3-2-5-1-5 2 0 2 2 6 5 7 3 2 5 1 5-2 0-2-2-6-5-7zM1828 828c-3-2-5-1-5 2 0 2 2 6 5 8 3 1 5 0 5-2 0-3-2-6-5-8zM1333 287c-3-1-5-1-5 2s2 6 5 8c3 1 5 1 5-2s-2-6-5-8zM1359 330c-3-2-5-1-5 1 0 3 2 7 5 8 3 2 5 1 5-2 0-2-2-6-5-7zM1418 424c-3-2-5-1-5 1 0 3 2 7 5 8 3 2 5 1 5-2 0-2-2-6-5-7zM1321 529c-3-1-5 0-5 2 0 3 2 6 5 8s5 1 5-2-2-6-5-8zM1459 783c-3-2-5-1-5 2 0 2 2 6 5 7 3 2 5 1 5-1 0-3-2-7-5-8zM1283 697c-3-1-5-1-5 2s2 6 5 8c3 1 5 1 5-2s-2-6-5-8zM1225 673c-3-2-5-1-5 2 0 2 2 6 5 7 3 2 5 1 5-1 0-3-2-6-5-8zM1116 629c-3-2-5-1-5 1 0 3 2 7 5 8 3 2 5 1 5-2 0-2-2-6-5-7zM1556 854c-3-2-5-1-5 2 0 2 2 6 5 8 3 1 5 0 5-2 0-3-2-6-5-8zM1630 942c-3-1-5-1-5 2s2 6 5 8c3 1 5 1 5-2s-2-6-5-8zM1706 958c-2-2-5-1-5 1 0 3 3 6 5 8 3 2 6 1 6-2 0-2-3-6-6-7zM1782 1057c-3-1-5-1-5 2s2 6 5 8c3 1 5 1 5-2s-2-6-5-8zM1307 573c-3-2-5-1-5 2 0 2 2 6 5 8 3 1 5 0 5-2 0-3-2-6-5-8zM1802 890c-3-1-5-1-5 2s2 6 5 8c3 1 5 1 5-2s-2-6-5-8zM1829 930c-3-2-5-1-5 1 0 3 2 7 5 8 3 2 5 1 5-2 0-2-2-6-5-7zM1585 710c-3-2-5-1-5 2 0 2 2 6 5 7 3 2 5 1 5-1 0-3-3-6-5-8zM1425 683c-3-1-5 0-5 2 0 3 2 6 5 8s5 1 5-2-2-6-5-8zM1544 662c-3-1-5-1-5 2s2 6 5 8c3 1 5 1 5-2s-2-6-5-8zM1596 690c-2-1-5-1-5 2s3 6 5 8c3 1 6 1 6-2s-3-6-6-8zM1484 522c-3-2-5-1-5 2 0 2 2 6 5 8 3 1 5 0 5-2 0-3-2-6-5-8zM1347 567c-2-1-5-1-5 2s3 6 5 8c3 1 6 1 6-2-1-3-3-6-6-8z"/><path class="fil43" d="M1241 219l9 15 19-3-9-16z"/><path class="fil41" d="M1670 467l-196-78-2-8 197 79zM1741 433l-11 6-1-2-1-2-2-2-1-1-1-2-2-2-1-2-2-1-1-2-2-2-2-1-1-2-2-1-1-2-2-1-2-2-1-1-2-2-2-1-1-2-2-1-2-1-1-1-2-2-2-1-2-1-1-1-2-1-2-1-1-1-2-1-2-1-1-16 2 1 2 1 2 2 3 1 2 1 2 2 2 1 2 1 2 2 2 2 2 1 2 2 3 1 2 2 2 2 2 2 2 2 2 1 2 2 2 2 2 2 1 2 2 2 2 2 2 2 2 2 2 2 1 3 2 2 2 2 2 2 1 2zm46 81l-12 3-1-2-2-3-2-3-1-2-2-3-1-2-2-3-1-3-1-2-2-3-1-2-1-3-2-2-1-3-1-3-2-2-1-3-1-2-1-2-2-3-1-2-1-3-2-2-1-2-1-3-2-2-1-2-2-3-1-2-2-2-1-2-2-2 11-6 2 3 2 3 2 2 1 3 2 3 2 2 1 3 2 3 1 2 2 3 1 2 2 3 1 3 1 2 2 3 1 2 1 3 2 2 1 3 1 2 1 3 2 2 1 3 1 2 2 3 1 2 1 2 2 3 1 2 1 2 2 3 1 2zm53 60l-5 11-2-2-2-1-2-2-2-2-2-2-2-2-2-2-2-2-2-2-2-2-2-2-2-2-2-2-2-2-2-2-2-2-2-2-2-3-2-2-1-2-2-2-2-2-2-3-2-2-1-2-2-3-2-2-1-2-2-2-2-3-1-2-2-3 12-3 2 2 1 2 1 2 2 2 1 2 2 2 1 2 2 2 1 2 2 2 1 2 2 2 1 2 2 2 2 1 1 2 2 2 2 2 1 2 2 2 2 2 2 2 1 1 2 2 2 2 2 2 2 1 2 2 1 2 2 2 2 1 2 2zm-5 11h-1 1zm6-10l-5 12v-1h-1v-1l5-11h1v1zM1592 762l-163-212 10-6 163 212-5 10-5-4zm5 4l-3-1-2-3 5 4zm244 141l-244-141v-15l244 141v15z"/><path class="fil39" d="M1678 829l-55-32c-4-2-7-2-8 1l-14 81c0 3 3 8 7 11l24 17c3 3 7 3 8 0 8-27 24-49 44-64 4-3 0-11-6-14zM1699 354l-1 12c-1 4 2 10 7 13 22 15 42 40 58 65 5 9 10 18 18 25 7 6 14 9 22 12l35 13v-60l-139-80z"/><path class="fil41" d="M1285 725l-4 3-4-4-3-4-3-4-4-5-3-4-3-4-4-4-3-4-3-5-3-4-3-4-3-5-3-4-3-4-3-5-3-4-3-5-3-4-3-5-2-4-3-5-3-4-2-5-3-4-2-5-3-4-2-5-3-4-2-5-2-4-2-5-2-4h6l2 4 2 5 2 4 3 5 2 4 2 4 3 5 2 4 3 5 2 4 3 4 2 5 3 4 3 4 2 5 3 4 3 4 3 5 3 4 3 4 3 4 3 5 3 4 3 4 3 4 3 4 3 4 4 4 3 5 3 4 4 4zM1642 631v7l-6-4-5-3-6-4-6-3-6-4-6-3-6-4-6-3-5-4-6-3-6-4-6-3-6-4-6-3-6-3-5-4-6-3-6-4-6-3-6-4-6-3-6-4-5-3-6-4-6-3-6-4-6-3-6-4-6-3-5-4-6-3-6-4v-6l6 3 6 4 6 3 5 3 6 4 6 3 6 4 6 3 6 4 6 3 5 4 6 3 6 4 6 3 6 4 6 3 6 4 5 3 6 4 6 3 6 4 6 3 6 4 6 3 5 3 6 4 6 3 6 4 6 3 6 4 6 3zM1795 938l-7-6 1-2 1-1 1-2 1-1 1-2 1-1 1-1 1-1 2-1 1-2 2-1 1-1h2l1-1 2-1 1-1 2-1h2l2-1h1l2-1h4l2-1h17l3 8h-15l-2 1h-4l-2 1h-1l-2 1h-2l-1 1-2 1h-1l-2 1-1 1-1 1-2 1-1 1-1 1-1 1-2 1-1 2-1 1-1 1-1 2v1l-1 1zm-11 54l-8-5 1-2v-7l1-2v-7l1-2v-5l1-2v-4l1-1v-4l1-2v-3l1-2v-1l1-2v-1l1-2 1-2v-1l1-2 1-1 7 6-1 2-1 1v2l-1 1v2l-1 1v2l-1 1v2l-1 1v4l-1 1v4l-1 1v6l-1 2v5l-1 2v7l-1 2v5zm-30 86l-7-7 1-2 2-2 1-3 1-2 2-2 1-3 1-2 1-2 1-3 1-2 2-3 1-2 1-3 1-2 1-3 1-3v-2l1-3 1-3 1-2 1-3 1-3v-3l1-3 1-2v-3l1-3v-3l1-3v-3l1-3v-3l8 5-1 3v3l-1 3v3l-1 3v3l-1 3-1 3v3l-1 3-1 3-1 2-1 3v3l-1 3-1 2-1 3-1 3-1 2-1 3-1 2-1 3-2 2-1 3-1 2-1 3-1 2-2 3-1 2-1 2-2 2-1 3z"/><path class="fil43" d="M1559 490l83 56 2-48-86-49zM1543 478l-35-20v-47l35 20zM1536 307l-39-6 8 75 31 10zM1559 325l1 83 83 27 6-97zM1212 180l-23-13v-21l22 13zM1173 149l-23-13v-21l22 13zM1135 117l-23-13V83l22 13zM1806 795l35 20-1-90-34-20zM1841 872l-50-29v-20l50 29zM1685 721l-1-39-18-10-29 89 87 50v-67zM1683 618l-11 32 73 42v-33zM1745 741l-36-21v-34l36 21z"/><path class="fil39" d="M1458 215l6 30c0 4 4 7 7 8l63 9c2 0 3 0 3-1l-79-46z"/><path class="fil43" d="M1479 630l-27-37-28 41 28 40zM1534 701l-45-58-28 45 42 62zM1543 714l-31 49 44 65 15-77zM1496 862l13 50 53 30-1-42zM1609 981l-25-14-1-50 26 14zM1623 606l-111-64v-31l111 63zM1519 503l-22-12v-9l22 12zM1558 599l-9-5v47l50 29 15-39zM1485 552v10l32 18v-9zM1485 568l1 10 31 18v-10zM1486 584v10l31 18v-10z"/><path class="fil41" d="M1618 699l-125-72v-7l125 72z"/><path class="fil39" d="M1369 682l-18 45c-1 3 2 7 5 9l48 21c3 1 5-1 3-5l-30-66c-2-4-7-7-8-4z"/><path class="fil41" d="M1839 523l-70-30-1-8 70 30z"/><path class="fil43" d="M1764 565l2-38-74-45-2 41zM1689 534l-2 40 73 49 3-47zM1781 910l3-14-31-18-9 11zM1774 939l5-20-40-23-13 15zM1720 918l-20 25 62 42 10-37zM1811 996l31 18v-59l-32-18zM1842 1050l-44-26v-18l44 26z"/><path class="fil41" d="M1364 854l-84-123 6-2 83 123zM1171 740l6-56 8 5-7 56zM1523 851l-128-244h6l128 244z"/><path class="fil43" d="M1738 1052l-47-28v-26l47 28zM1795 1066l-11 28 45 26-2-30zM1205 672l-99-58-1-38 100 58zM1290 592l-51 40 57 59 34-61z"/><path class="fil44" d="M1449 452l-160 359-17-15 160-359 17 15zm175-57l4 18-8-3-8-3-8-3-7-2-7-2-8-2-7-1-7-1-7-1-7-1h-19l-6 1-6 1-6 1-6 1-5 2-6 2-5 2-5 3-5 2-4 3-5 4-4 3-4 4-4 4-3 5-4 4-3 5-2 5-3 6-17-15 3-6 3-6 3-5 4-5 3-5 5-4 4-4 4-4 5-4 5-3 5-3 6-3 5-2 6-2 6-2 6-1 6-2 7-1h7l6-1h7l8 1h7l7 1 8 2 8 1 8 2 8 2 8 2 8 3 8 3 8 4zm216 107l-212-89-4-18 213 89 3 18z"/><path class="fil44" d="M1606 303l-258 542-17-15 258-542z"/><path class="fil44" d="M1488 292l348 144 3 18-348-144-3-18zM1158 78l7-11 10 10 9 9 10 9 10 9 9 9 10 9 10 8 10 9 10 8 10 8 10 8 10 8 10 8 10 7 10 7 10 8 11 7 10 7 10 6 10 7 11 6 10 6 10 6 11 6 10 6 10 5 10 5 11 6 10 4 10 5 11 5 10 4 3 18-11-4-10-5-11-5-10-5-11-5-11-6-10-5-11-6-11-6-10-6-11-7-10-6-11-7-11-7-10-7-11-7-10-8-11-7-10-8-11-8-10-8-10-8-11-9-10-8-10-9-10-9-10-9-11-9-10-9-9-10-10-9-10-10zm-58-77l65 66-7 11-66-66 8-11z"/><path class="fil43" d="M1440 748l9 21 27 8-12-23zM1460 745l-15-28-20-5 12 28z"/><path d="M1626 665c-5-3-10-9-10-14 0-4 4-6 10-3 5 3 9 9 9 14s-4 6-9 3zm13 0c0-7-6-17-13-21-8-4-14-2-14 5 0 2 0 4 1 6 0 1 1 1 1 1l10 25c1 1 3 2 3 1l10-12c1 0 1 0 1-1 1-1 1-2 1-4z" fill="#e31e24"/></g><path fill="none" d="M1101 143l730 421 3 425-730-421z"/><path class="fil47" transform="matrix(-1.85326 -1.0671 .01384 1.83974 1432.77 320.818)" d="M0 0h150v150H0z"/><path class="fil48" d="M1160 219l218 125v20l-218-126zM1403 359l-21-13v19l21 13zM1428 373l-22-12 1 19 21 12z"/><path class="fil49" transform="matrix(.52072 .29983 .00425 .56459 1229.75 327.941)" d="M0 0h203.134v12.5H0z"/><path class="fil50" transform="matrix(.46197 .266 .00425 .56459 1229.84 340.04)" d="M0 0h203.134v12.5H0z"/><path class="fil51" d="M1224 339c0 1-1 2-2 1-2-1-3-2-3-3 0-2 1-2 3-1 1 1 2 2 2 3zM1210 332c0 1-1 1-2 0-1 0-2-2-2-3s1-2 2-1 2 2 2 4z"/><path class="fil52" d="M1226 334l-4-5c0-1 0-1-1-1l-3-2h-1v6l-12-7v4h1c0-1 1-2 2-1s2 2 2 4l7 4 2 1c0-2 1-2 3-1 1 1 2 2 2 3l1 1h1v-5-1z"/><path class="fil53" d="M1209 331h-1l-1-1c0-1 1-1 1-1 1 1 1 1 1 2zM1222 338v1l-1-1c0-1 0-1 1-1v1zM1222 329c0-1 0-1-1-1l-2-1v4l7 4v-1l-4-5z"/><path class="fil54" d="M1217 332l-12-7v-3l12 7v3z"/><path class="fil55" d="M1226 336l-3-1 3 2v-1z"/><path class="fil56" transform="matrix(.52072 .29983 .00364 .48392 1166.25 286.861)" d="M0 0h493.255v1.563H0z"/><path class="fil49" d="M1168 298l9 5v9l-9-5v-9zm0 1l8 5 1 7-9-4v-8z"/><path class="fil57" d="M1175 306l-3 2-2-3v-2l2 3 3-2z"/><path class="fil49" d="M1187 309l10 6v9l-10-6v-9zm1 1l8 5v8l-8-5v-8zM1167 274l10 5v9l-10-5v-9zm1 1l8 5v7l-8-5v-7z"/><path class="fil57" d="M1175 282l-3 1-2-2v-2l2 2 3-1z"/><path class="fil49" d="M1187 285l10 6v9l-10-6v-9zm1 1l8 5v7l-8-4v-8z"/><path class="fil50" transform="matrix(.31096 .17905 .00425 .56459 1333.2 371.249)" d="M0 0h203.134v12.5H0z"/><path class="fil48" transform="matrix(.52072 .29983 .00364 .48392 1404.66 415.156)" d="M0 0h15.313v3.125H0z"/><path class="fil56" transform="matrix(.65277 .37586 .00364 .48392 1160.4 243.09)" d="M0 0h410.438v39.585H0z"/><path class="fil58" d="M1382 425v1c0 1 1 1 1 1 2-1 4 1 6 3 0 1 1 1 1 1v-1c-2-3-6-5-8-5z"/><path class="fil58" d="M1384 428c-1 0-1 1 0 1 0 0 0 1 1 0 0 0 2 1 3 2v1c1 0 1-1 0-1-1-2-3-3-4-3z"/><circle class="fil58" transform="matrix(.00484 .00279 .00003 .0045 1386.08 431.631)" r="182"/><path class="fil58" d="M1392 430c-3-5-9-9-12-7 0 1 1 1 1 1 3-1 7 2 10 6h1z"/><path class="fil59" transform="matrix(.52072 .29983 .00364 .48392 1400.97 430.226)" d="M0 0h6.016v6.016H0z"/><path class="fil59" transform="matrix(.52072 .29983 .00364 .48392 1405.73 432.967)" d="M0 0h6.016v6.016H0z"/><path class="fil59" transform="matrix(.52072 .29983 .00364 .48392 1410.49 435.707)" d="M0 0h6.016v6.016H0z"/><path class="fil59" transform="matrix(.52072 .29983 .00364 .48392 1401.01 434.574)" d="M0 0h6.016v6.016H0z"/><path class="fil59" transform="matrix(.52072 .29983 .00364 .48392 1405.77 437.315)" d="M0 0h6.016v6.016H0z"/><path class="fil59" transform="matrix(.52072 .29983 .00364 .48392 1410.53 440.055)" d="M0 0h6.016v6.016H0z"/><path class="fil59" transform="matrix(.52072 .29983 .00364 .48392 1401.04 438.922)" d="M0 0h6.016v6.016H0z"/><path class="fil59" transform="matrix(.52072 .29983 .00364 .48392 1405.8 441.663)" d="M0 0h6.016v6.016H0z"/><path class="fil60" transform="matrix(.52072 .29983 .00364 .48392 1410.56 444.403)" d="M0 0h6.016v6.016H0z"/><path class="fil49" transform="matrix(.52072 .29983 .00425 .56459 1229.97 358.187)" d="M0 0h203.134v12.5H0z"/><path class="fil50" transform="matrix(.46197 .266 .00425 .56459 1230.07 370.286)" d="M0 0h203.134v12.5H0z"/><path class="fil51" d="M1224 370c0 1-1 1-2 0-1 0-3-2-3-3s1-2 3-1c1 1 2 2 2 4zM1211 362c0 1-1 1-3 1-1-1-2-3-2-4s1-1 2-1c2 1 3 3 3 4z"/><path class="fil52" d="M1226 364l-4-5v-1l-4-2h-1l1 6-13-7v4h1c0-1 1-1 2-1 2 1 3 3 3 4l7 4 1 1c0-1 1-2 3-1 1 1 2 2 2 4h2v-5-1z"/><path class="fil53" d="M1209 361h-1v-1s0-1 0 0c1 0 1 0 1 1zM1223 369h-1c-1 0-1-1-1-1 0-1 0-1 1-1 0 1 1 1 1 2zM1222 359v-1l-2-1h-1v4h1l6 4v-1l-4-5z"/><path class="fil54" d="M1218 362l-13-7v-3l13 7v3z"/><path class="fil55" d="M1226 366l-2-1h-1s0 1 1 1l2 1v-1z"/><path class="fil56" transform="matrix(.52072 .29983 .00364 .48392 1166.47 317.107)" d="M0 0h493.255v1.563H0z"/><path class="fil49" d="M1168 328l10 6v9l-10-6v-9zm1 1l8 5v7l-8-4v-8z"/><path class="fil57" d="M1175 337l-3 1-2-3v-2l2 3 3-1z"/><path class="fil49" d="M1187 339l10 6v9l-9-6-1-9zm1 2l8 4v8l-8-5v-7z"/><path class="fil58" d="M1382 456c0 1 1 1 1 1 2-1 5 1 7 4 1 0 1 0 0-1-2-3-6-5-8-4z"/><path class="fil58" d="M1384 458v1c0 1 1 1 1 1 1-1 2 0 3 1v1h1v-1c-2-2-4-3-5-3z"/><circle class="fil58" transform="matrix(.00484 .00279 .00003 .0045 1386.31 461.877)" r="182"/><path class="fil58" d="M1392 460c-3-5-8-8-12-7v1h1c3-1 8 2 10 6 0 0 1 0 1 1 1 0 1-1 0-1z"/><g><path class="fil59" transform="matrix(.52072 .29983 .00364 .48392 1401.2 460.472)" d="M0 0h6.016v6.016H0z"/><path class="fil59" transform="matrix(.52072 .29983 .00364 .48392 1405.96 463.213)" d="M0 0h6.016v6.016H0z"/><path class="fil59" transform="matrix(.52072 .29983 .00364 .48392 1410.72 465.953)" d="M0 0h6.016v6.016H0z"/><path class="fil59" transform="matrix(.52072 .29983 .00364 .48392 1401.23 464.82)" d="M0 0h6.016v6.016H0z"/><path class="fil59" transform="matrix(.52072 .29983 .00364 .48392 1405.99 467.561)" d="M0 0h6.016v6.016H0z"/><path class="fil59" transform="matrix(.52072 .29983 .00364 .48392 1410.75 470.301)" d="M0 0h6.016v6.016H0z"/><path class="fil59" transform="matrix(.52072 .29983 .00364 .48392 1401.27 469.168)" d="M0 0h6.016v6.016H0z"/><path class="fil59" transform="matrix(.52072 .29983 .00364 .48392 1406.03 471.909)" d="M0 0h6.016v6.016H0z"/><path class="fil60" transform="matrix(.52072 .29983 .00364 .48392 1410.79 474.649)" d="M0 0h6.016v6.016H0z"/></g><path class="fil49" transform="matrix(.52072 .29983 .00425 .56459 1230.2 388.433)" d="M0 0h203.134v12.5H0z"/><path class="fil50" transform="matrix(.46197 .266 .00425 .56459 1230.29 400.532)" d="M0 0h203.134v12.5H0z"/><g><path class="fil51" d="M1224 400c0 1-1 1-2 1-1-1-2-3-2-4s1-1 2-1c1 1 2 3 2 4zM1211 392c0 1-1 2-2 1-2-1-3-2-3-4 0-1 1-1 3 0 1 0 2 2 2 3z"/><path class="fil52" d="M1226 394l-3-5c-1 0-1 0-1-1l-4-2v6l-13-7v3s0 1 1 1c0-1 1-1 3 0 1 0 2 2 2 3l7 4 2 1c0-1 1-1 2-1 1 1 2 3 2 4l2 1v-6-1z"/><path class="fil53" d="M1209 391c0 1 0 1 0 0-1 0-1 0-1-1h1v1zM1223 399h-1l-1-1s1-1 1 0c0 0 1 0 1 1zM1223 389c-1 0-1 0-1-1l-2-1v5l6 3v-1l-3-5z"/><path class="fil54" d="M1218 392l-13-7v-3h1l12 7v3z"/><path class="fil55" d="M1226 397l-2-2v1l2 1z"/></g><path class="fil56" transform="matrix(.52072 .29983 .00364 .48392 1166.7 347.353)" d="M0 0h493.255v1.563H0z"/><path class="fil49" d="M1168 358l10 6v9l-10-6v-9zm1 1l8 5v8l-8-5v-8z"/><path class="fil57" d="M1175 367l-3 1-1-3v-2l1 3 3-1z"/><path class="fil49" d="M1188 370l9 5 1 9-10-5v-9zm0 1l9 5v7l-8-5-1-7z"/><g><path class="fil61" d="M1382 486v1h1c2 0 5 1 7 4 0 1 1 1 1 1v-1c-3-4-6-6-9-5z"/><path class="fil61" d="M1384 489c0 1 1 1 1 1 1 0 2 0 3 2h1v-1c-1-2-4-3-5-2z"/><circle class="fil61" transform="matrix(.00484 .00279 .00003 .0045 1386.54 492.123)" r="182"/><path class="fil61" d="M1392 490c-3-5-8-8-11-7-1 0-1 1 0 1v1c3-1 8 1 11 5v1c1 0 1-1 0-1z"/></g><g><path class="fil59" transform="matrix(.52072 .29983 .00364 .48392 1401.43 490.718)" d="M0 0h6.016v6.016H0z"/><path class="fil59" transform="matrix(.52072 .29983 .00364 .48392 1406.19 493.459)" d="M0 0h6.016v6.016H0z"/><path class="fil59" transform="matrix(.52072 .29983 .00364 .48392 1410.95 496.199)" d="M0 0h6.016v6.016H0z"/><path class="fil59" transform="matrix(.52072 .29983 .00364 .48392 1401.46 495.066)" d="M0 0h6.016v6.016H0z"/><path class="fil59" transform="matrix(.52072 .29983 .00364 .48392 1406.22 497.807)" d="M0 0h6.016v6.016H0z"/><path class="fil59" transform="matrix(.52072 .29983 .00364 .48392 1410.98 500.547)" d="M0 0h6.016v6.016H0z"/><path class="fil59" transform="matrix(.52072 .29983 .00364 .48392 1401.49 499.414)" d="M0 0h6.016v6.016H0z"/><path class="fil59" transform="matrix(.52072 .29983 .00364 .48392 1406.25 502.155)" d="M0 0h6.016v6.016H0z"/><path class="fil60" transform="matrix(.52072 .29983 .00364 .48392 1411.01 504.895)" d="M0 0h6.016v6.016H0z"/></g><path class="fil49" transform="matrix(.52072 .29983 .00425 .56459 1230.43 418.679)" d="M0 0h203.134v12.5H0z"/><path class="fil50" transform="matrix(.46197 .266 .00425 .56459 1230.52 430.778)" d="M0 0h203.134v12.5H0z"/><g><path class="fil51" d="M1225 430c0 1-1 2-3 1-1-1-2-2-2-4 0-1 1-1 2 0 1 0 3 2 3 3zM1211 422c0 1-1 2-2 1s-3-2-3-3c0-2 1-2 3-1 1 1 2 2 2 3z"/><path class="fil52" d="M1226 425l-3-6h-1l-3-2c-1-1-1 0-1 0v6l-13-8v3c0 1 1 1 1 1v1c0-2 1-2 3-1 1 1 2 2 2 3l7 4 2 1c0-1 1-1 2 0 1 0 3 2 3 3l1 1v-6z"/><path class="fil53" d="M1210 421c0 1-1 1-1 1-1-1-1-1-1-2h1l1 1zM1223 429c0 1 0 1-1 0 0 0-1 0-1-1h1c1 0 1 1 1 1zM1223 419h-1l-2-1c0-1 0-1 0 0v4l6 3-3-6z"/><path class="fil54" d="M1218 423l-13-8v-2c0-1 1-1 1-1l12 7v4z"/><path class="fil55" d="M1226 427l-2-1c0-1 0-1 0 0l2 2v-1z"/></g><path class="fil56" transform="matrix(.52072 .29983 .00364 .48392 1166.93 377.599)" d="M0 0h493.255v1.563H0z"/><path class="fil49" d="M1168 389l10 5v9l-10-5v-9zm1 1l8 4v8l-8-5v-7z"/><path class="fil57" d="M1176 397l-3 1-2-2v-2l2 2 3-1z"/><path class="fil49" d="M1188 400l10 5v10l-10-6v-9zm1 1l8 5v7l-8-4v-8z"/><g><path class="fil58" d="M1383 516c-1 0-1 1 0 1 0 0 0 1 1 1 1-1 4 1 6 3v1h1v-1c-2-4-6-6-8-5z"/><path class="fil58" d="M1384 519v1h1c1 0 2 1 3 2h1c-1-2-3-4-5-3z"/><circle class="fil58" transform="matrix(.00484 .00279 .00003 .0045 1386.77 522.369)" r="182"/><path class="fil58" d="M1393 520c-4-5-9-8-12-7-1 0-1 1 0 1 0 1 0 1 1 1 2-1 7 1 10 6h1v-1z"/></g><g><path class="fil59" transform="matrix(.52072 .29983 .00364 .48392 1401.66 520.964)" d="M0 0h6.016v6.016H0z"/><path class="fil59" transform="matrix(.52072 .29983 .00364 .48392 1406.41 523.704)" d="M0 0h6.016v6.016H0z"/><path class="fil59" transform="matrix(.52072 .29983 .00364 .48392 1411.17 526.445)" d="M0 0h6.016v6.016H0z"/><path class="fil59" transform="matrix(.52072 .29983 .00364 .48392 1401.69 525.312)" d="M0 0h6.016v6.016H0z"/><path class="fil59" transform="matrix(.52072 .29983 .00364 .48392 1406.45 528.053)" d="M0 0h6.016v6.016H0z"/><path class="fil59" transform="matrix(.52072 .29983 .00364 .48392 1411.21 530.793)" d="M0 0h6.016v6.016H0z"/><path class="fil59" transform="matrix(.52072 .29983 .00364 .48392 1401.72 529.66)" d="M0 0h6.016v6.016H0z"/><path class="fil59" transform="matrix(.52072 .29983 .00364 .48392 1406.48 532.401)" d="M0 0h6.016v6.016H0z"/><path class="fil60" transform="matrix(.52072 .29983 .00364 .48392 1411.24 535.141)" d="M0 0h6.016v6.016H0z"/></g><path class="fil49" transform="matrix(.52072 .29983 .00425 .56459 1230.66 448.925)" d="M0 0h203.134v12.5H0z"/><path class="fil50" transform="matrix(.46197 .266 .00425 .56459 1230.75 461.024)" d="M0 0h203.134v12.5H0z"/><g><path class="fil51" d="M1225 460c0 1-1 2-3 1-1-1-2-2-2-3 0-2 1-2 2-1 2 1 3 2 3 3zM1211 453c0 1-1 1-2 0-1 0-2-2-2-3s1-2 2-1 2 2 2 4z"/><path class="fil52" d="M1226 455l-3-5c0-1 0-1-1-1l-3-2h-1v6l-12-7v4h1c0-1 1-2 2-1s2 2 2 4l7 4 2 1c0-2 1-2 2-1 2 1 3 2 3 3l1 1h1v-5c0-1 0-1-1-1z"/><path class="fil53" d="M1210 452h-1l-1-1c0-1 1-1 1-1 0 1 1 1 1 2zM1223 459c0 1 0 1-1 1v-2c1 0 1 1 1 1zM1223 450c0-1 0-1-1-1l-2-1v4l7 4c0-1 0-1-1-1l-3-5z"/><path class="fil54" d="M1218 453l-12-7-1-3h1l12 7v3z"/><path class="fil55" d="M1227 457l-3-1 3 2v-1z"/></g><path class="fil56" transform="matrix(.52072 .29983 .00364 .48392 1167.16 407.845)" d="M0 0h493.255v1.563H0z"/><path class="fil49" d="M1168 419l10 5v9l-9-5-1-9zm1 1l8 5v7l-8-4v-8z"/><path class="fil57" d="M1176 427l-3 1-2-2v-2l2 3 3-2z"/><path class="fil49" d="M1188 430l10 6v9l-10-6v-9zm1 1l8 5v8l-8-5v-8z"/><g><path class="fil58" d="M1383 546v1c0 1 0 1 1 1 2-1 4 1 6 3 0 1 1 1 1 1v-1c-2-3-6-5-8-5z"/><path class="fil58" d="M1385 549c-1 0-1 1 0 1 0 0 0 1 1 0 0 0 2 1 2 2 1 0 1 0 1 1 1 0 1-1 0-1-1-2-3-3-4-3z"/><circle class="fil58" transform="matrix(.00484 .00279 .00003 .0045 1386.99 552.615)" r="182"/><path class="fil58" d="M1393 550c-3-4-9-8-12-6 0 1 1 1 1 1 3-1 7 2 10 6h1v-1z"/></g><g><path class="fil59" transform="matrix(.52072 .29983 .00364 .48392 1401.88 551.21)" d="M0 0h6.016v6.016H0z"/><path class="fil59" transform="matrix(.52072 .29983 .00364 .48392 1406.64 553.95)" d="M0 0h6.016v6.016H0z"/><path class="fil59" transform="matrix(.52072 .29983 .00364 .48392 1411.4 556.691)" d="M0 0h6.016v6.016H0z"/><path class="fil59" transform="matrix(.52072 .29983 .00364 .48392 1401.92 555.558)" d="M0 0h6.016v6.016H0z"/><path class="fil59" transform="matrix(.52072 .29983 .00364 .48392 1406.68 558.298)" d="M0 0h6.016v6.016H0z"/><path class="fil59" transform="matrix(.52072 .29983 .00364 .48392 1411.44 561.039)" d="M0 0h6.016v6.016H0z"/><path class="fil59" transform="matrix(.52072 .29983 .00364 .48392 1401.95 559.906)" d="M0 0h6.016v6.016H0z"/><path class="fil59" transform="matrix(.52072 .29983 .00364 .48392 1406.71 562.647)" d="M0 0h6.016v6.016H0z"/><path class="fil60" transform="matrix(.52072 .29983 .00364 .48392 1411.47 565.387)" d="M0 0h6.016v6.016H0z"/></g><g><path class="fil47" d="M1433 321l397 229 1 50-398-229z"/><path class="fil62" d="M1100 129l55 32v50l-54-31zM1433 321l-278-160v50l278 160z"/><path fill="#322571" d="M1221 199l-66-38v50l66 38z"/><path class="fil64" d="M1165 192c0-1 1-2 1-2 1-1 2-1 4 0 0 1 1 1 2 2s1 2 1 3c1 0 1 1 1 2v2c-1 1-1 1-2 1s-2 0-2-1c-1 0-2-1-3-2 0-1-1-1-1-2-1-1-1-2-1-3zm1 1c0 1 1 2 1 3 1 1 2 2 3 2 1 1 1 1 2 1 1-1 1-1 1-3 0 0 0-1-1-2 0 0 0-1-1-1 0-1-1-1-1-2h-3s-1 1-1 2zm11 10l-1-1-1-8h2v3s1 0 1 1c1 0 1 0 2 1l1 1v2c0 2 0 2-1 2 0 1-1 1-2 0 0 0-1-1-1-2v1zm0-3v2l1 1c1 0 1 1 2 0v-1-2l-2-2h-1v2zm6-1v-1l1 1v1l-1-1zm-2 9v-1c1 0 1 1 1 1h1v-8l1 1v8h-2c0-1 0-1-1-1zm9 1l1 1h-1-2l-2-2c-1-1-1-2-1-3s0-2 1-2h2l2 2c1 1 1 2 1 3v1l-5-3s1 1 1 2l1 1h2zm-4-4l4 2v-1l-2-2h-1s-1 0-1 1zm11 7l1 1c0 1 0 1-1 1h-2c0-1-1-1-2-2 0-1-1-2-1-3s0-1 1-2h2c1 1 2 1 2 2 1 1 1 1 1 2l-1-1-1-1-1-1h-1v4l1 1h2v-1zm5 4v1h-1s-1 0-1-1c-1-1-1-1-1-2v-3l-1-1v-1l1 1v-2h1v2l2 1v1l-2-1v4s1 0 1 1h1zm0 0h1c0 1 1 1 1 2 0 0 1 0 1 1h2c0-1 0-1-1-1 0 0 0-1-1-1l-2-2v-1s-1 0-1-1h1v-1h1c0 1 1 1 1 1l1 1c1 0 1 1 1 1l1 1h-2v-1c0-1-1-1-1-1-1 0-1-1-1-1v2s1 0 1 1c1 0 2 1 2 1s0 1 1 1v2h-3c-1-1-1-2-2-2 0-1-1-1-1-2zM1234 236l4-7 1 1 4 11-2-1-1-3-4-2-1 2-1-1zm3-2l3 2-1-3c0-1-1-2-1-2v1l-1 2zm6 7v-8l2 1v8l-2-1zm8 3l1 1h-1c0 1-1 0-2 0-1-1-2-1-2-2-1-1-1-2-1-3s0-2 1-2h2l2 2c1 1 1 2 1 3v1l-5-3s0 1 1 2l1 1h2zm-4-4l4 2c0-1 0-1-1-1 0-1 0-1-1-2h-1c-1 0-1 0-1 1zm7 7l-1-6 2 1v0h1c0 1 1 1 1 1v1c-1 0-1 0-1-1h-1v5l-1-1zm6 3v1c-1 0-1-1-1-1-1 0-1 0-1-1v-5h-1v-1l1 1v-2h1v2l1 1v1l-1-1v5h1zm1 0h1c0 1 0 1 1 1 0 1 0 1 1 1 0 1 1 1 1 1v-1c0-1-1-1-1-1l-2-2s0-1-1-1v-1-1h2l1 1s1 0 1 1c0 0 1 0 1 1v1l-1-1v-1h-1l-1-1c-1 0-1 0-1 1 0 0 1 0 1 1h1c1 1 1 2 2 2v1l1 1-1 1h-1s-1 0-1-1c-1 0-2-1-2-1-1-1-1-2-1-2zM1298 269v-1l4 3v3h-2c-1 0-1-1-2-1-1-1-2-1-2-2l-2-2c-1-1-1-2-1-3s0-2 1-2c0-1 1-1 1-1 1 0 2 1 3 1s1 1 2 1c0 1 1 1 1 2s1 1 1 2l-1-1c-1 0-1-1-1-1s0-1-1-1l-1-1c-1 0-1 0-2-1l-1 1v4s1 1 1 2c1 0 1 1 2 1 0 0 1 0 2 1h1v-2l-3-2zm10 8h1c0 1 0 1-1 1h-2c-1-1-1-2-2-2-1-1-1-2-1-3s0-2 1-2h2c1 1 2 1 2 2 1 1 1 2 1 3v1l-5-3s1 1 1 2l1 1h2zm-4-4l4 2v-1c-1-1-1-2-2-2h-1s-1 0-1 1zm6 4c0-1 1-2 1-2h2c1 1 2 2 3 2 0 1 1 2 1 3s-1 2-1 2h-1-2l-2-2c0-1-1-2-1-3zm1 0c0 1 1 2 1 3l1 1h2v-1-2l-2-2h-1l-1 1zm7 7v-5l-1-1h1v-1c0-1 1-1 1-1l1 1h1v1h-1-1v1l2 1h-2v5l-1-1zm8 3l1 1s0 1-1 1c0 0-1 0-2-1-1 0-1-1-2-2s-1-2-1-3 0-2 1-2c0 0 1 0 2 1 1 0 2 1 2 2 1 1 1 2 1 3l-5-3c0 1 0 1 1 2l1 1c1 0 1 1 1 1 1 0 1-1 1-1zm-4-4l4 2v-1l-2-2h-1l-1 1zm7 7v-6l1 1v1c0-1 1-1 2 0 0 0 1 0 1 1l1 1v6l-1-1v-4-1l-1-1c-1-1-1-1-2-1v5l-1-1zm11 5l1 1s0 1-1 1c0 0-1 0-1-1-1 0-2-1-3-2 0-1-1-2-1-3l1-1c0-1 0-1 1-1 0 0 1 0 1 1 1 0 2 1 2 1 1 1 1 2 1 2h-1c0-1 0-1-1-1v-1c-1-1-2-1-2-1v4c0 1 1 1 1 1 1 1 1 1 2 1v-1zm7 4l1 1-1 1c-1 0-1 0-2-1-1 0-2-1-2-2-1-1-1-2-1-3s0-2 1-2c0 0 1 0 2 1 1 0 2 1 2 2 1 1 1 2 1 3l-5-3c0 1 0 1 1 2l1 1 1 1c0-1 1-1 1-1zm-4-4l4 2s0-1-1-1c0-1 0-1-1-2h-1c-1 0-1 1-1 1zM1375 317v-8h1v4l5 3v-4l1 1v8h-1v-4l-5-3v4l-1-1zm9-2v-1h1v2l-1-1zm0 7v-6l1 1v6l-1-1zm2 0h2v2s1 0 1 1h2v-1c-1 0-1-1-2-1 0-1-1-1-1-2-1 0-1 0-1-1v-1-1c1 0 1 0 1 1h1c1 0 1 1 1 1 1 0 1 1 1 1 1 0 1 1 1 1h-1c0-1-1-1-1-1 0-1 0-1-1-1l-1-1v2s1 0 1 1c1 0 2 1 2 1l1 1v2h-3c-1-1-1-2-2-2 0-1 0-1-1-2zm10 6v1h-1l-1-1v-1-5h-1v-1l1 1-1-2h2v2l1 1v1l-1-1v5h1zm0-2c0-1 1-1 2-2 0 0 1 1 2 1l2 2c0 1 1 2 1 3s0 1-1 2h-1-1l-3-3c0-1 0-2-1-3zm2 1v2l2 2h1s1-1 1-2c0 0-1-1-1-2l-1-1c-1 0-1-1-2 0v1zm6 7v-6h1v1h2s0 1 1 1l-1 1c0-1 0-1-1-1h-1v5l-1-1zm4 5v-1h2l-2-8 1 1 1 4c1 0 1 1 1 2v-1l2-3h1l-3 5v1l-1 1s-1 0-1-1h-1z"/><path class="fil65" d="M1461 377h1v1c0 1 0 1 1 2 0 0 1 0 1 1h2v-1c0-1 0-1-1-1 0 0 0-1-1-2-1 0-2-1-2-1l-1-1v-1-1s1-1 1 0h2c0 1 1 1 2 1 0 1 0 1 1 2v1h-1c0-1 0-1-1-2l-1-1h-2v1c1 0 1 1 2 2 1 0 2 1 2 1 0 1 1 1 1 2v2h-1c-1 0-1 0-2-1-1 0-1 0-2-1 0 0-1-1-1-2v-1zm12 8h1c0 1-1 1-1 1h-2c-1-1-1-2-2-2 0-1-1-2-1-3s1-2 1-2c1 0 1 0 2 1 1 0 2 1 2 2 1 0 1 1 1 2l-5-2s1 1 1 2c0 0 1 0 1 1h2zm-4-4l4 2c0-1 0-1-1-1 0-1 0-1-1-2h-1s0 1-1 1zm9 7v1h-1l-1-1v-1s-1 0-1-1v-5h1v2h2v1l-2-1v4h1v1h1zm3 2v1h-1c0-1 0-1-1-1v-1-4l-1-1h1v-1h1v2h1v1l-1-1v5h1zm1-5v-1h1v1h-1zm0 7v-6h1v6h-1zm2 1v-6l1 1v1c1-1 1-1 2 0 1 0 1 0 1 1 1 0 1 0 1 1v5l-1-1v-3-1-1h-1c0-1-1-1-1-1s-1 1-1 2l1 3-2-1zm7 4l1 1v1s1 0 1 1h2v-2c0 1-1 1-2 0-1 0-1-1-2-2v-2-2h2c1 1 2 1 2 2v-1l1 1v7h-1c-1 0-1 0-2-1l-1-1c-1-1-1-1-1-2zm1-3v2l1 1c1 1 1 1 2 1v-2-2c-1 0-1-1-2-1h-1v1zm5 5h1c0 1 0 1 1 1 0 1 0 1 1 1l1 1v-1-1s-1 0-1-1c-1 0-1-1-2-1v-1c-1 0-1 0-1-1h1v-1l1 1h1s0 1 1 1c0 0 0 1 1 1v1l-1-1-1-1c-1 0-1-1-1-1-1 0-1 1-1 1 1 0 1 0 1 1h1c1 1 1 1 1 2 1 0 1 0 1 1v1c0 1-1 1-1 1 0-1-1-1-1-1-1 0-2-1-2-2l-1-1z"/><path class="fil62" d="M1484 369l4 7h1v-1l-4-6h-1z" data-original="#000000" data-old_color="#433588"/><path class="fil62" d="M1491 371v-1-1l-2-1c0-1-1-2-1-3h1v-1l-1-1v-1c0-1-1-1-1-1h-2l-2-2v-1c0-1 0-1-1-1l-1-1c-1-1-1-1-1 0v1h-2l-2-2s0-1-1 0h-1v1l1 2-1 1-2-1v3l2 2c0 1 1 1 1 2l-1 1v1l1 1v1h3c0 1 1 1 2 2v2s0 1 1 1h1l1 1 1-2h2l-3-3c0-1-1-1-1-2-1 0-2-1-3-2s-1-3-1-4l2 2c0 1 1 1 1 1h1v-1l-2-3c2 1 3 2 4 3s1 3 1 3c0 1 0 2 1 2l2 4v-1h1v-1l2 1v-1z" data-original="#000000" data-old_color="#433588"/><path class="fil65" d="M1527 417v-8l3 3c1 0 2 0 2 1l1 1v3c-1 0-1 0-2-1 0 1 0 1 1 1 0 0 0 1 1 2l1 3-1-1-1-3c-1 0-1-1-1-1-1 0-1-1-1-1l-1-1-1-1v4l-1-1zm1-3l2 1h1c1 1 1 1 1 0v-1l-2-2-2-1v3zm11 9h1c0 1 0 1-1 1h-1c-1-1-2-1-3-2v-3-2c1 0 2 0 2 1 1 0 2 1 2 2 1 0 1 1 1 2v1l-4-3v2c1 0 1 1 2 1h1zm-3-4l3 2v-1c-1-1-1-1-2-1 0-1 0-1-1-1v1zm6 9v-8 1h1s1 0 1 1c1 0 1 0 2 1 0 0 0 1 1 1v3l-1 1h-2c0-1 0-1-1-1v-1 3l-1-1zm0-4s1 1 1 2c0 0 1 0 1 1h1c1 0 1-1 1-2 0 0 0-1-1-1 0-1 0-1-1-2h-1s-1 1-1 2zm6 3c0-1 0-2 1-2h2c0 1 1 1 2 2v4c0 1 0 1-1 1 0 0-1 0-1-1-1 0-2-1-2-2-1-1-1-1-1-2zm1 0v2c1 1 1 1 2 1 0 1 1 1 1 1v-2-2l-1-1h-2v1zm6 6v-5h1v1h1s1 0 1 1v1l-1-1h-1v4l-1-1zm6 3v1h-1s0-1-1-1v-1-4l-1-1h1v-1h1v2h1v1l-1-1v5h1zm0 0h2v1c0 1 1 1 1 1 1 0 1 1 1 1l1-1s-1 0-1-1l-1-1c-1 0-1-1-1-1-1 0-1 0-1-1v-1-1s1 0 1 1h1l1 1c1 0 1 1 1 1v1h-1v-1c0-1-1-1-1-1-1 0-1-1-1-1v2h1l2 2v1s1 0 1 1h-1c0 1 0 1-1 1 0-1 0-1-1-1s-1-1-2-1c0-1 0-2-1-2z"/><path class="fil62" d="M1543 407l-4-2v-4-1l-2-1v6s0 1 1 2l5 3h1v-2l-1-1zM1551 406v-2h-1l-2-2v-3h-1l-1-1h-1v3l-3-2v2l3 2v3h1l1 1h1v-3l2 2h1zM1537 394l2 1c0 1 0 0 0 0v-3l4 2h1v-2h-1l-5-3c-1-1-1-1-1 0v5zM1556 410l-2-1v4l-4-2h-1v2h1l5 3c1 1 1 1 1 0v-5-1zM1555 398l-5-3h-1v2s0 1 1 1l4 2v4l2 1v-5s0-1-1-2z" data-original="#000000" data-old_color="#433588"/><g><path class="fil65" d="M1650 489v-8h1v7l5 3v1l-6-3zm6 0c0-1 1-1 1-2 1 0 2 0 2 1 1 0 2 1 2 2 1 1 1 2 1 2v2h-3l-2-2c0-1-1-2-1-3zm2 1v2l1 1h2v-1-2c-1-1-1-1-2-1 0-1-1-1-1 0v1zm9 6l1 1v1h-2c-1-1-2-1-2-2-1-1-1-2-1-3v-1l1-1c1 0 1 0 2 1 1 0 1 1 2 1v2l-1-1v-1h-1l-1-1c-1 0-1 1-1 2 0 0 0 1 1 2 0 0 0 1 1 1h1v-1zm6 5h-1-1c-1-1-1-1-1-2-1 0-1-1-1-1v-1h2c1 1 2 1 2 1v-1l-1-1c-1 0-1-1-1-1l-1 1-1-1h1c0-1 0-1 1 0h1l1 1c1 0 1 1 1 1v5s1 0 1 1l-1-1c-1 0-1-1-1-1zm0-2s-1 0-1-1h-2v1c1 0 1 1 1 1h2v-1zm5 5v0h-1l-1-1v-5h-1v-1l1 1v-2h1v2l1 1v1l-1-1v4h1v1zm1-6v-1l1 1v1l-1-1zm0 7v-6l1 1v6l-1-1zm2-1c0-1 1-2 1-2h2c1 1 2 1 2 2 1 1 1 2 1 3v1c0 1-1 1-1 1-1 0-1 0-2-1-1 0-1-1-2-2 0-1-1-1-1-2zm1 0c0 1 1 2 1 2 0 1 1 1 1 1 1 1 1 1 2 1v-2-2c-1 0-1-1-2-1h-1s-1 0-1 1zm6 6v-5h1v1h2l1 1c1 0 1 1 1 1v5h-1v-4-1c0-1-1-1-1-1h-1s-1 0-1 1v3l-1-1z"/><path class="fil62" d="M1671 465c-4-2-7-1-7 3v2c0 1 0 1 1 2 0 2 2 6 6 11l1 1c4-1 6-3 7-4v-1-2c0-4-3-9-8-12zm1 11c-2-1-4-3-4-5s2-3 4-2c2 2 3 4 3 6s-1 3-3 1z" data-original="#000000" data-old_color="#433588"/></g><g><path class="fil65" d="M1591 448v-2l1 1v1h-1zm0 6v-5h1v6l-1-1zm3 2v-8l3 2 1 1c1 0 1 1 1 1 0 1 1 1 1 1 0 1-1 1-1 1h-1l2 2v2s-1 0-1 1l-1-1h-1l-3-2zm1-4l2 1 1 1v-1-1-1h-2l-1-1v2zm0 4l2 1h2v-1l-1-1-1-1-2-1v3zm10 7v-1h-2c0-1 0-1-1-1v-1l-1-1v-4h1v4l1 1c0 1 0 1 1 1h1v-4l1 1v5h-1zm5 2v0c-1 0-1 0-1-1h-1v-5h-1v-1l1 1v-2h1v2l1 1h-1v4h1v1zm4 1v1h-1c-1 0-1 0-1-1-1-1-1-1-1-2v-5h1v2l1 1h-1v3s0 1 1 1h1zm0-1c0-1 0-2 1-2s1 0 2 1c1 0 2 1 2 1 1 1 1 2 1 3v2h-2l-1-1c-1 0-2-1-2-1-1-1-1-2-1-3zm1 0c0 1 0 2 1 2 0 1 0 1 1 2h1c1 0 1-1 1-1 0-1 0-2-1-2 0-1-1-1-1-2h-1c-1 0-1 1-1 1zm6 7v-6l1 1s1 0 2 1h1c0 1 1 1 1 1v6l-1-1v-3-1c0-1 0-1-1-1v-1h-1c-1 0-1 0-1 1v3h-1z"/><path class="fil62" d="M1602 434c-1 0-1 1 0 1 0 1 1 1 1 1 3-1 8 2 10 6l1 1h1v-1c-4-6-10-9-13-8z" data-original="#000000" data-old_color="#433588"/><path class="fil62" d="M1605 438c-1 0-1 1 0 2l1 1c1-1 3 0 5 2v1h1c1 0 1-1 0-1-2-3-5-5-7-5zM1610 445c0-1-1-2-2-2 0-1-1 0-1 0 0 1 1 2 1 2 1 1 2 1 2 0zM1618 441c-5-8-14-13-19-11-1 0-1 0 0 1 0 1 1 1 1 1 5-2 12 3 16 9l1 1h1v-1z" data-original="#000000" data-old_color="#433588"/></g><g><path fill="#9cc602" d="M1773 517l-56-33v51l57 32z"/><path class="fil64" d="M1734 537v-8h1v4l4 2v-3l1 1v7h-1v-4l-4-2v3h-1zm12 5l1 1v1c-1 0-1-1-2-1s-2-1-2-2c-1-1-1-2-1-3s0-1 1-1c0-1 1 0 2 0l2 2v3l-4-3c0 1 0 1 1 2 0 1 0 1 1 1 0 0 0 1 1 1v-1zm-3-4l3 2v-1l-1-1h-2zm6 7v-8l1 1v8l-1-1zm2 4v-8l1 1h2c1 1 1 1 1 2 1 0 1 1 1 1 1 1 1 1 1 2 0 0 0 1-1 1 0 1 0 1-1 1l-1-1h-1c0-1 0-1-1-1v3l-1-1zm1-5c0 1 1 2 1 2 0 1 1 1 1 2h1s1-1 1-2c0 0-1-1-1-2l-1-1h-1c-1 0-1 1-1 1z"/><path class="fil67" d="M1745 526c-5-3-9-9-9-14s4-6 9-4c5 3 9 10 9 15 1 4-4 6-9 3zm0-15c-4-3-7-1-7 2 0 4 3 8 7 11 4 2 7 1 7-3 0-3-3-8-7-10z" data-original="#ffffff" data-old_color="#ffffff"/><path class="fil67" d="M1746 515c0-1 0-2-1-2h-1c0 1 0 2 1 2h1zM1747 522h-1l-2-1v-6 1l2 1v3l1 1z" data-original="#ffffff" data-old_color="#ffffff"/><g><path fill="#ef7f1a" d="M1773 517l57 33 1 50-57-33z"/><path class="fil64" d="M1785 566v-8l1 1v7l4 2v1l-5-3zm6 1c0-2 0-2 1-2h2c0 1 1 1 2 2v4c0 1 0 1-1 1l-1-1c-1 0-2-1-2-2-1-1-1-1-1-2zm1 0v2c1 1 1 1 2 1 0 1 1 1 1 1v-2-2l-1-1h-2v1zm6 7h1v1c0 1 1 1 1 1l1 1 1-1v-1h-2c-1-1-2-1-2-2s-1-2-1-3c0 0 0-1 1-1 0 0 0-1 1-1 0 0 0 1 1 1s1 1 2 2v-1l1 1v5s0 1-1 1v1c-1 0-1-1-2-1s-1-1-2-1v-2zm0-3c0 1 1 1 1 2l1 1h1c1 0 1 0 1-1s0-2-1-2c0-1-1-1-1-1 0-1-1-1-1 0 0 0-1 0-1 1zm6 3c0-1 0-2 1-2 0 0 1 0 2 1 1 0 1 1 2 2 0 1 1 1 1 2s0 2-1 2h-1-1c-1-1-2-1-2-2-1-1-1-2-1-3zm1 1v2c1 0 1 1 2 1h1s1 0 1-1-1-2-1-2c0-1-1-1-1-1-1-1-1-1-2-1v2zm10 8v-1c-1 1-1 1-2 0h-1c0-1-1-1-1-1v-1-5l1 1v5c1 0 1 0 1 1h2v-4h1v6l-1-1zm5 2v1h-1l-1-1v-1-4l-1-1h1v-1h1v2h1v1h-1v4h1z"/><path class="fil67" d="M1793 547c0-3 1-5 3-6 1 0 3 2 3 3h-1c-1 0-2 2-2 4 0 3 3 6 5 8 4 3 7 2 7-2 0-1-1-3-2-5 0-1-1-1-1-2s2 0 3 1c2 2 3 5 3 8 0 5-4 6-10 3-4-3-7-8-8-12zm9-6h-1v6c0 1 0 1 1 2 1 0 1 0 1-1v-5c0-1 0-2-1-2z" data-original="#000000" data-old_color="#ffffff"/></g></g><path class="fil47" d="M1140 173c-2-5-5-9-9-12-3-3-7-5-10-5s-5 1-6 4c-1 2 0 6 2 10 1 4 4 8 8 10 3 3 6 5 10 5 3 0 5-2 6-5 0-1-1-3-3-4-1 0-2 0-2 1 0 2-2 3-4 3-1 0-3-1-5-2-2-2-4-4-5-6l18 1zm-17-12c4 0 9 4 11 7h-14c-2-4 0-7 3-7z"/></g><g><path d="M1141 129c0 7-6 9-13 5-8-5-14-14-14-20 0-7 6-9 13-5 8 4 14 13 14 20z" fill="#f23b3b"/><path d="M1175 148c0 7-6 9-14 5-7-4-13-13-13-20s6-9 13-5c8 5 14 13 14 20z" fill="#f4ea3d"/><path d="M1208 168c0 7-5 9-13 4-7-4-13-13-13-19 0-7 6-9 13-5s13 13 13 20z" fill="#8def1b"/></g></g><g><path class="fil72" d="M1336 1079s-1 14 0 17c1 4 9 3 11 2 10-2 32-13 31-23 0-3-6-3-15 1-9 5-14 4-15 1-1-2-12 2-12 2zM1254 1064s-2 14-1 17c2 4 9 3 12 2 9-2 31-13 31-23-1-3-6-3-15 1-9 5-14 4-15 1-2-2-12 2-12 2z"/><path d="M1213 639s-19 34-21 105c4 14 43 6 47 0s0-18 0-18h-17l5-34-14-53z" fill="#db0a8c" fill-rule="nonzero"/><path class="fil74" d="M1251 1065c-1-13-7-127-8-131-3-35-12-67-14-74-7-28-6-62-6-62l63 2s-4 55-3 124c0 12-12 128-12 140l-20 1z"/><path d="M1310 943c-6-12-30-60-35-72-26-48-22-70-22-70l80-3s8 116 14 142c1 4 4 137 5 140l-16 1-26-138z" fill="#26079a" fill-rule="nonzero"/><path fill="#e8e8e8" fill-rule="nonzero" d="M1286 691l72 41 54-95-72-40z"/><path fill="#5649d8" fill-rule="nonzero" d="M1410 638l-52 92-70-40 52-92z"/><path class="fil9" d="M1401 641l-44 79-60-33 45-79z"/><path d="M1292 567s13-1 18 14c1 2 1 4 1 6-1 4 0 10 2 15 3 8-3 23-9 30-6 2-12-3-12-3l-4 15-34-8s4-12 0-31-2-28 10-35c12-6 28-3 28-3z" fill="url(#id6)" fill-rule="nonzero"/><path class="fil74" d="M1305 544s-9 6-36 8c-28 2-29 21-25 30-8 3 9 33 9 45 16 5 28-2 28-2s6-9 2-19c-3-11 3-21 7-18 1 1 2 17 3 17h2c1 0 0-4 1-11 1-4 5-11 5-12-1-3-3-10-3-10l5-1s7 0 7-6c0-11-5-21-5-21z"/><path d="M1335 672s-15-18-46-30c-15-5-32-7-32-7s-28-3-42 3c-8 3-14 42-4 67 11 26 17 56 10 71-8 14-13 56-13 56s12 8 35 12c0 0 7-38 8-38l4 40c23 3 55 1 89-16-4-19-17-55-21-73s12-85 12-85z" fill="#e81c90" fill-rule="nonzero"/><path d="M1368 718s-1-10 0-16-1-9-2-11c-2-2 1-8 5-3 5 5 6 11 6 11l12-21s10 22-7 50c-11 6-14-10-14-10z" fill="url(#id3)" fill-rule="nonzero"/><path d="M1342 705c4-12 2-25-8-34-1-2-4-3-6-5-15-7-25 6-26 32 0 27 3 67 18 92 10 14 47 8 67-61-5-7-23-12-23-12s-17 44-24 38c-8-7-3-34 2-50z" fill="#f431a1" fill-rule="nonzero"/></g><g><path fill="#efefef" fill-rule="nonzero" d="M1657 789v252l327 188V977z"/><path class="fil2" d="M1589 941l364 210V900l-364-211z"/><path class="fil74" d="M1589 936l364 210v-10l-364-210z"/><path fill="#ff3856" fill-rule="nonzero" d="M1865 1095l88 51v-10l-88-51z"/><path class="fil14" d="M1701 880c0 45 31 99 70 122 39 22 71 4 71-41s-32-100-71-122c-39-23-70-4-70 41z"/><g><path class="fil84" d="M1792 874l-11-6-6-4c-5-1-10 0-16 3-15 9-27 29-27 46v7l6 10 23 39h1l15 9 1-5-5-3-7-16 16-55c2-5 3-11 3-17v-6l7 4v-6z"/><path class="fil85" d="M1774 877c-14 8-26 29-26 46v7l7 12 22 36 21-69c2-6 3-12 3-17 0-17-12-24-27-15z"/><path class="fil86" d="M1784 901c0 6-4 14-10 17-5 3-10 0-10-6s5-14 10-17c6-3 10-1 10 6z"/><path class="fil87" d="M1776 965l-19-32c-3-2-4-6-4-12 0-13 9-29 21-36 3-2 6-3 9-3 7 0 12 6 12 15 0 4-1 9-3 13l-16 55zm3-71c-2 0-3 0-5 1-5 3-10 11-10 17 0 5 3 7 6 7 1 0 3 0 4-1 6-3 10-11 10-17 0-5-2-7-5-7z"/><path class="fil86" d="M1770 919c-3 0-6-2-6-7 0-6 5-14 10-17 2-1 3-1 5-1 3 0 5 2 5 7 0 6-4 14-10 17-1 1-3 1-4 1z"/></g></g><g><path d="M916 1066l22-12 14-8c9-3 21-1 33 6 31 18 57 62 57 97 0 4-1 10-2 14l-11 21-49 81-33 20-3-12 11-6 15-34-33-113c-5-12-8-24-8-36 0-5 1-9 2-14l-15 9v-13z" fill="#3f6aa9"/><path d="M953 1072c31 18 56 61 56 97 0 5-1 11-2 15l-14 25-46 76-43-146c-5-12-7-24-7-35 0-36 25-50 56-32z" fill="#5593ad"/><path class="fil0" d="M950 1256l-34-113c-3-10-5-19-5-28 0-20 9-31 24-31 6 0 12 2 19 6 24 14 44 48 44 75 0 12-3 20-9 26l-39 65zm-7-148c-6 0-11 5-11 15 0 13 9 29 21 35 3 2 6 3 9 3 7 0 11-5 11-14 0-14-9-30-20-36-4-2-7-3-10-3z"/><path class="fil86" d="M962 1161c-3 0-6-1-9-3-12-6-21-22-21-35 0-10 5-15 11-15 3 0 6 1 10 3 11 6 20 22 20 36 0 9-4 14-11 14z"/></g><g><path class="fil34" d="M1749 1518c5-3 10-5 15-8 6-3 10-6 15-9v-16c-13-13-29-12-25-17 5-6 35-7 61-9 3-7 5-15 6-23 0 0 1-16 0-16-24-6-51 3-53-3s21-17 41-27v-16c-26 3-73 2-81-2-8-5-1-21 5-36v-16c-18 11-73 30-84 29s-21-17-32-31c-14 0-28 2-41 4-3 15-5 32-14 35-10 2-35-7-58-14-5 2-24-2-29 0v17c13 13 29 27 24 33-5 5-39 8-65 10-4 7-1 14-2 22 24 6 52 12 53 18 2 6-22 2-40 11v16c4 8 10 15 18 22 26-4 55-8 63-3 7 4 0 6-5 19-1 2 0 15 0 17 11 4 24 8 36 10 18-11 37-24 47-23 11 1 22 17 32 31 14-1 28-2 41-4 3-15 5-32 15-35 9-3 34 6 57 14zm-190-49c-38-21-38-56 0-78 37-22 98-22 136 0 37 22 37 57 0 78-38 22-99 22-136 0z"/><path class="fil33" d="M1749 1502c5-3 10-6 15-8 6-3 10-6 15-9-14-14-30-28-25-34 5-5 35-6 61-8 3-8 5-15 6-23-24-7-51-13-53-19s21-17 41-27c-5-7-11-15-19-21-26 3-54 7-62 3-8-5-1-22 5-36-12-5-24-8-37-11-18 11-36 24-47 23s-21-16-32-30c-14 0-28 1-41 3-3 16-5 33-14 35-10 3-35-6-58-14-5 3-10 5-15 8s-10 6-14 9c13 14 29 28 24 33-5 6-34 7-60 9-4 8-6 15-7 23 24 7 52 13 53 19 2 6-21 17-40 27 4 7 10 14 18 21 26-3 55-7 63-3 7 5 0 21-5 36 11 5 24 8 36 11 18-11 37-24 47-23 11 1 22 16 32 30 14 0 28-1 41-3 3-16 5-33 15-35 9-3 34 6 57 14zm-190-49c-38-21-38-57 0-78 37-22 98-22 136 0 37 21 37 57 0 78-38 22-99 22-136 0z"/><g><path class="fil34" d="M1951 1357c3-1 6-3 9-5 4-2 6-4 9-6 0 0 1-14 0-15-8-8-18-2-15-5 3-4 21-4 38-5 2-5 4-10 4-15v-15c-15-4-32 7-33 3s13-10 25-17v-15c-16 2-46 6-51 4-5-3 0-14 3-23v-15c-11 7-45 24-52 23s-13-10-20-19c-9 0-17 1-26 2-2 10-3 20-9 22s-21-4-36-9c-3 2-15-6-18-4v15c8 8 18 17 15 21-3 3-26 4-42 5v15c15 4 32 7 33 11s-14-4-25 2v15c3 5 7 9 11 14 17-2 34-4 40-2 1 0 0-1-4 7 0 1 1 15 0 15 8 3 15 5 23 7 12-7 23-15 30-15 7 1 13 11 20 20 9-1 17-1 26-3 1-9 3-20 9-22 6-1 21 4 36 9zm-120-30c-23-14-23-36 0-49 24-14 62-14 86 0 23 13 23 35 0 49-24 13-62 13-86 0z"/><path class="fil33" d="M1951 1342c3-1 6-3 9-5 4-2 6-4 9-6-8-8-18-17-15-20 3-4 21-4 38-5 2-5 4-10 4-15-15-4-32-8-33-12s13-10 25-17c-3-4-7-9-12-13-16 2-34 4-39 2-5-3 0-14 3-23-7-3-15-5-23-7-11 7-22 16-29 15s-13-10-20-19c-9 0-17 1-26 2-2 10-3 20-9 22s-21-4-36-9c-3 2-6 3-10 5-3 2-6 4-8 6 8 8 18 17 15 21-3 3-22 4-38 5-2 5-4 10-4 15 15 4 32 7 33 11s-13 11-25 17c3 5 7 9 11 14 17-2 35-5 40-2 4 3 0 13-4 22 8 3 15 5 23 7 12-7 23-15 30-15 7 1 13 11 20 20 9-1 17-1 26-3 1-9 3-20 9-22 6-1 21 4 36 9zm-120-30c-23-14-23-36 0-49 24-14 62-14 86 0 23 13 23 35 0 49-24 13-62 13-86 0z"/></g></g><g><path d="M710 385l-76 44c-5 3-9 10-9 16v46c0 6 7 11 12 8l28-21 32 10v-28l13-8c5-2 9-10 9-15l6-46c0-6-10-9-15-6z" fill="#d9dada" fill-rule="nonzero"/></g><g><path class="fil91" d="M803 477v4h1v-4zM804 477l-41-24h-1l41 24z"/><path class="fil91" d="M803 477l-41-24v4l41 24z"/><path class="fil92" d="M803 477l-41-24h-1l41 24z"/><path class="fil93" d="M756 458v3l42 24c-1-1-1-2-1-3-13-7-29-17-41-24z"/><path class="fil93" d="M800 481v-1l-3 2c0 1 0 2 1 3 1-1 2-3 2-4z"/><path class="fil93" d="M800 480l-41-23-3 1 41 24z"/><path class="fil94" d="M793 483l-41-24c2 0 2 2 2 5 0 5-3 11-7 13l41 24c4-3 8-9 8-13 0-3-1-5-3-5z"/><path class="fil93" d="M792 485l-41-24c1 1 1 2 1 4 0 3-2 8-5 10l41 24c3-2 6-7 6-10 0-2-1-3-2-4z"/><path class="fil95" d="M790 488l-41-24c1 1 1 1 1 2 0 2-2 5-3 6l41 24c2-1 3-4 3-6 0-1 0-1-1-2z"/><path class="fil96" d="M748 468l41 24h1l-41-24h-1z"/><path class="fil96" d="M790 490l-41-24v2l41 24 1-1c0-1 0-1-1-1zM746 471l41 24h1l-41-24h-1z"/><path class="fil96" d="M788 493l-41-24v2l41 24 1-1s0-1-1-1z"/><path class="fil97" d="M749 466c14 8 27 16 41 24l-41-24z"/><path class="fil97" d="M748 468l41 24v-1c-13-7-27-15-41-23 14 8 28 16 41 23 0 0 0-1 1-1l-41-24c-1 1-1 1-1 2z"/><path class="fil97" d="M789 491c-10-6-21-12-31-18 10 6 21 12 31 18z"/><path class="fil96" d="M788 491l-41-24s1 0 1 1l-1 1 41 24 1-1c0-1 0-1-1-1z"/><path class="fil97" d="M747 467c13 8 27 16 41 24l-41-24z"/><path class="fil96" d="M788 489l-41-24v2h-1l41 24s1 0 1-1c0 0 1 0 1-1h-1z"/><path class="fil97" d="M747 465l41 24c-12-7-28-17-41-24z"/><path class="fil96" d="M749 464h-2l41 24h2c-12-7-29-17-41-24z"/><path class="fil97" d="M746 466v1l41 24v-1c-14-8-27-16-41-24 14 8 27 16 41 24 0 0 0-1 1-1l-41-24c-1 0-1 1-1 1zM746 471l41 24c-13-8-27-16-41-24z"/><path class="fil97" d="M787 495c-10-6-21-12-31-18 10 6 21 12 31 18zM747 469v1l41 23c-12-7-28-16-41-24z"/><path class="fil97" d="M746 471c14 8 28 16 41 24 0-1 1-1 1-2l-41-23c-1 0-1 0-1 1z"/><path class="fil95" d="M744 472l42 24h2l-41-24h-3z"/><path class="fil96" d="M746 469l41 24h1l-41-24h-1z"/><path class="fil97" d="M787 493c-10-7-21-13-31-19 10 6 21 12 31 19z"/><path class="fil97" d="M746 469l41 24c-14-8-27-16-41-24 14 8 27 16 41 24 0-1 0-2 1-2l-41-24c-1 0-1 1-1 2z"/><path class="fil96" d="M744 470l41 24h1l-41-24h-1z"/><path class="fil96" d="M786 492l-41-23v1l41 24 1-1s-1 0-1-1z"/><path class="fil97" d="M785 494c-10-6-21-12-31-18 10 6 21 12 31 18zM745 469c0-1 0-1 0 0l41 24v-1c-12-7-28-16-41-23zM787 490c-10-6-21-12-31-18 10 6 21 12 31 18z"/><path class="fil97" d="M744 470l41 24c-14-8-27-16-41-24 14 8 27 16 41 24 0-1 0-1 1-1l-41-24c-1 0-1 0-1 1z"/><path class="fil96" d="M747 464c-2 1-3 4-3 6 13 8 27 16 41 24 0-2 1-5 3-6-12-7-29-16-41-24z"/><path class="fil95" d="M751 461c-1 0-3 0-4 1l41 24c1-1 3-1 4-1-12-7-29-17-41-24z"/><path class="fil94" d="M741 478l41 23c2 1 4 1 6 0l-41-24c-2 1-4 1-6 1z"/><path class="fil93" d="M743 475l41 24c1 1 2 0 4 0l-41-24c-2 1-3 1-4 0z"/><path class="fil96" d="M744 470v2l42 24c-1 0-1-1-1-2-14-8-28-16-41-24z"/><path class="fil97" d="M788 493c0 1-1 1-1 2h1l1-1c0-1-1-1-1-1z"/><path class="fil95" d="M741 471c0 2 1 3 2 4l41 24c-1-1-2-2-2-4-13-8-27-16-41-24z"/><path class="fil93" d="M739 473c0 2 1 4 2 5l41 23c-1 0-2-2-2-4-14-8-27-16-41-24zM752 459c-1-1-3-1-5 0l41 24c2-1 4-1 5 0-12-8-28-17-41-24zM779 492l-41-24-1 1 42 24zM779 493l-42-24 42 24zM779 493l-42-24 41 24z"/><path class="fil98" d="M782 486l-41-24-1 1 41 24zM781 487l-41-24 41 24zM778 490l-41-24v2l41 24z"/><path class="fil99" d="M781 485l-41-24v2l41 24z"/><path class="fil94" d="M777 494l-42-24-3 2 41 24z"/><path class="fil94" d="M740 480l41 24c-2-1-3-3-3-6 0-2 0-3 1-4l-42-24v4c0 3 1 5 3 6z"/><path class="fil98" d="M778 492l-41-24-5 3 41 24z"/><path class="fil94" d="M738 468c0 1-1 1-1 2l42 24v-2c-12-7-29-16-41-24z"/><path class="fil92" d="M779 492l-41-24c0 1 0 1-1 1l42 24v-1z"/><path class="fil93" d="M778 493l-41-24v1l42 24c-1 0-1-1-1-1z"/><path class="fil95" d="M778 490l-41-24-5 3 41 24z"/><path class="fil98" d="M781 487l-41-24-8 4 41 24z"/><path class="fil93" d="M778 495s0-1 1-1v-2h-1l-1-1 1-1-38-22c1-4 4-7 7-9 12 7 29 17 41 24-4 3-8 9-8 14 0-1-1-1-2-2z"/><path class="fil98" d="M773 495l-41-24v1l41 24z"/><path class="fil95" d="M773 493l-41-24v2l41 24z"/><path class="fil94" d="M773 496l-41-24-3 2 41 24z"/><path class="fil98" d="M773 491l-41-24v2l41 24zM773 491l-41-24 41 24z"/><path class="fil97" d="M773 495l-41-24-3 2 41 23z"/><path class="fil97" d="M770 496l-41-23v1l41 24z"/><path class="fil95" d="M773 493l-41-24-3 2 41 24z"/><path class="fil95" d="M770 495l-41-24v2l41 23z"/><path class="fil97" d="M773 491l-41-24-3 2 41 24z"/><path class="fil97" d="M770 493l-41-24v2l41 24z"/><path class="fil94" d="M770 498l-41-24-15 8 41 24z"/><path class="fil98" d="M755 505l-41-24v1l41 24z"/><path class="fil98" d="M770 496l-41-23-15 8 41 24z"/><path class="fil95" d="M770 495l-41-24-15 8 41 24z"/><path class="fil95" d="M755 503l-41-24v2l41 24z"/><path class="fil94" d="M755 506l-41-24-4 2 42 24z"/><path class="fil98" d="M755 502l-41-24v1l41 24z"/><path class="fil98" d="M770 493l-41-24-15 9 41 24z"/><path class="fil97" d="M752 507l-42-24v1l42 24z"/><path class="fil97" d="M755 505l-41-24-4 2 42 24z"/><path class="fil95" d="M752 505l-42-24v2l42 24z"/><path class="fil95" d="M755 503l-41-24-4 2 42 24z"/><path class="fil97" d="M752 504l-42-24v1l42 24z"/><path class="fil97" d="M755 502l-41-24-4 2 42 24z"/><path class="fil94" d="M752 508l-42-24-5 3 41 24z"/><path class="fil98" d="M752 507l-42-24-5 3 41 24z"/><path class="fil95" d="M752 505l-42-24-5 3 41 24z"/><path class="fil95" d="M746 508l-41-24v2l41 24z"/><path class="fil92" d="M744 508l-42-24 42 24z"/><path class="fil98" d="M752 504l-42-24-8 4 42 24z"/><path class="fil92" d="M781 485l-41-24-38 21 42 24z"/><path class="fil94" d="M783 486l-42-24c0 2-1 5-3 6l41 24c2-1 4-4 4-6z"/><path class="fil94" d="M779 492c2-1 4-4 4-6h-1l11-7c2 1 3 2 4 3 0 1 0 2 1 3v1c0 7-5 14-10 17-6 3-10 1-10-5 0-2 0-3 1-4v-2zm9 9c4-3 8-9 8-13 0-5-4-7-8-5-4 3-8 9-8 14 0 4 4 6 8 4z"/><path class="fil98" d="M741 462z"/><path class="fil95" d="M780 494c1-3 3-7 6-10l2 2c-3 1-6 6-6 9 0 0-1 0-2-1z"/><path class="fil94" d="M752 463l-1-1c1 0 1 0 1 1zm6 3l-5-3c2 1 3 2 5 3zm4 2l-4-2c1 1 3 1 4 2zm8 5l-8-5c3 2 5 3 8 5zm4 2l-4-2c1 0 2 1 4 2zm17 6l2-2-41-23-11 6 2 1c1-2 2-3 4-4s4-1 5 0c12 6 27 15 39 22zm-42-20l-2-2 2 2zm26 15l6 3-6-3zm7 4l-1-1 1 1zm4 2l-3-2c1 1 2 1 3 2z"/><path class="fil92" d="M795 480zm0 0zm0 0zm0 0zm1 1zm0 0zm-42-25l2 2 37 22v-1c1 1 1 1 2 1-12-7-29-17-41-24zm43 26zm0 0zm0 0zm-1-1zm0 0zm0 0zm0 0zm0 0zm0 0z"/><path class="fil92" d="M802 474l-41-23-9 5 41 23z"/><path class="fil99" d="M800 473l-41-24v1l41 24z"/><path class="fil93" d="M796 488c0 4-4 10-8 13-4 2-8 0-8-4 0-5 4-11 8-14 4-2 8 0 8 5zm-8 11c3-2 6-7 6-10 0-4-3-5-6-3-3 1-6 6-6 9 0 4 3 5 6 4z"/><path class="fil95" d="M794 489c0 3-3 8-6 10-3 1-6 0-6-4 0-3 3-8 6-9 3-2 6-1 6 3zm-6 7c2-1 3-4 3-6s-1-3-3-2-3 4-3 6 1 3 3 2z"/><path class="fil96" d="M791 490c0 2-1 5-3 6s-3 0-3-2 1-5 3-6 3 0 3 2zm-3 3l1-1c0-1-1-1-1-1-1 0-1 1-1 2h1zm0 2l1-1c0-1-1-1-1-1 0 1-1 1-1 2h1zm0-6c-1 0-1 1-1 1 0 1 0 1 1 0 0 0 1 0 1-1h-1zm2 3l1-1c0-1-1-1-1-1-1 0-1 1-1 1 0 1 0 1 1 1zm-4 2l1-1c0-1-1-1-1 0-1 0-1 0-1 1h1z"/><path class="fil97" d="M790 490s1 0 1 1l-1 1c-1 0-1 0-1-1 0 0 0-1 1-1z"/><path class="fil99" d="M802 469l-41-24v2l41 23z"/><path class="fil97" d="M788 491c-1 0-1 1-1 2h1l1-1c0-1-1-1-1-1z"/><path class="fil99" d="M802 466l-41-24v3l41 24z"/><path class="fil91" d="M795 476l-41-24v1l41 24z"/><path class="fil99" d="M800 474l-41-24-5 3 41 24z"/><path class="fil92" d="M802 477v-3l-9 5c2 1 3 2 4 3l3-2 3 1v-4h-1z"/><path class="fil91" d="M789 480l-41-24v1l41 24z"/><path class="fil99" d="M793 478l-41-24-4 3 41 24z"/><path class="fil94" d="M795 480l-41-24h-2l41 23c1 1 1 1 2 1z"/><path class="fil91" d="M800 473l-41-24-5 3 41 24z"/><path class="fil99" d="M793 477l-41-24v1l41 24zM802 462l-41-24v4l41 24z"/><path class="fil99" d="M802 459l-41-24v3l41 24z"/><path class="fil91" d="M789 480v1l4-3v-1z"/><path class="fil91" d="M793 477l-41-24-4 3 41 24z"/><path class="fil99" d="M802 455l-41-24v4l41 24z"/><path class="fil99" d="M802 451l-42-24 1 4 41 24z"/><path class="fil99" d="M802 448l-42-24v3l42 24z"/><path class="fil99" d="M802 444l-42-24v4l42 24z"/><path class="fil99" d="M802 441l-42-24v3l42 24z"/><path class="fil99" d="M802 437l-42-24v4l42 24z"/><path class="fil99" d="M802 433l-42-24v4l42 24z"/><path class="fil99" d="M802 430l-42-24v3l42 24z"/><path class="fil99" d="M802 426l-42-24v4l42 24z"/><path class="fil99" d="M802 423l-42-24v3l42 24z"/><path class="fil99" d="M802 419l-42-24v4l42 24z"/><path class="fil99" d="M802 416l-42-24v3l42 24z"/><path class="fil98" d="M743 511l-42-24 1 1 41 24zM743 511l-42-24 42 24z"/><path class="fil94" d="M746 511l-41-24c-1 1-2 1-3 1l41 24c1 0 2 0 3-1zM743 511l-42-24 42 24z"/><path class="fil94" d="M743 511l-42-24-1 1 41 24z"/><path class="fil98" d="M744 508l-42-24-1 1 41 24z"/><path class="fil98" d="M742 509l-41-24v2l42 24z"/><path class="fil92" d="M744 506l-42-24v2l42 24z"/><path class="fil94" d="M741 512l-41-24-15 9 41 24z"/><path class="fil94" d="M726 521l-41-24v6l41 24z"/><path class="fil93" d="M726 521l-41-24-6 3 42 24z"/><path class="fil99" d="M725 517l-42-24 42 24z"/><path class="fil91" d="M720 519l-41-24v1l41 24z"/><path class="fil99" d="M725 517l-42-24-4 3 41 24z"/><path class="fil91" d="M720 519v1l5-3z"/><path class="fil92" d="M720 520l5-3-39-23 15-9 41 24-21 13-42-24 1-1z"/><path class="fil99" d="M731 513l-41-24v1l41 24z"/><path class="fil91" d="M726 515l-41-23 41 24z"/><path class="fil99" d="M731 514l-41-24-5 2 41 24z"/><path class="fil91" d="M726 515v1l5-2v-1z"/><path class="fil91" d="M731 513l-41-24-5 3 41 23z"/><path class="fil92" d="M721 522l-42-24v2l42 24z"/><path class="fil93" d="M721 522l-42-24-2 1 42 24z"/><path class="fil91" d="M725 517l-42-24-4 2 41 24z"/><path class="fil93" d="M717 523l-41-23 41 24z"/><path class="fil93" d="M719 523l-42-24-1 1 41 23zM715 525l-41-23v2l41 24z"/><path class="fil93" d="M717 524l-41-24-2 2 41 23zM716 519v1l86-50v-1z"/><path class="fil99" d="M802 470l-41-23-86 49 41 24z"/><path class="fil93" d="M716 519l-41-24v1l41 24z"/><path class="fil93" d="M802 469l-41-24-86 50 41 24z"/><path class="fil100" d="M716 515v4l86-50v-3zM716 515l-41-24v4l41 24z"/><path class="fil100" d="M802 466l-41-24-86 49 41 24z"/><path class="fil101" d="M802 462l-41-24-86 49 41 24z"/><path class="fil101" d="M716 511l-41-24v4l41 24z"/><path class="fil100" d="M802 459l-41-24-86 49 41 24z"/><path class="fil97" d="M786 493c-1 0-1 0-1 1h1l1-1c0-1-1-1-1 0zM788 489c-1 0-1 1-1 1 0 1 0 1 1 0 0 0 1 0 1-1h-1z"/><path class="fil100" d="M716 508v3l86-49v-3zM716 508l-41-24v3l41 24z"/><path class="fil101" d="M716 504v4l86-49v-4z"/><path class="fil101" d="M802 455l-41-24-86 49 41 24z"/><path class="fil101" d="M716 504l-41-24v4l41 24z"/><path class="fil100" d="M716 501v3l86-49v-4zM716 501l-41-24v3l41 24z"/><path class="fil100" d="M802 451l-42-24-85 50 41 24z"/><path class="fil92" d="M779 492v1-1z"/><path class="fil93" d="M779 493h-1s0 1 1 1v-2 1z"/><path class="fil101" d="M716 497v4l86-50v-3z"/><path class="fil101" d="M802 448l-42-24-85 49 41 24z"/><path class="fil101" d="M716 497l-41-24v4l41 24z"/><path class="fil100" d="M716 494l-41-24v3l41 24z"/><path class="fil100" d="M802 444l-42-24-85 50 41 24z"/><path class="fil101" d="M802 441l-42-24-85 49 41 24z"/><path class="fil101" d="M716 490l-41-24v4l41 24z"/><path class="fil100" d="M716 486l-41-24v4l41 24z"/><path class="fil100" d="M802 437l-42-24-85 49 41 24z"/><path class="fil101" d="M802 433l-42-24-85 50 41 23z"/><path class="fil101" d="M716 482l-41-23v3l41 24z"/><path class="fil100" d="M802 430l-42-24-85 49 41 24z"/><path class="fil100" d="M716 479l-41-24v4l41 23z"/><path class="fil101" d="M802 426l-42-24-85 50 41 24z"/><path class="fil101" d="M716 476v3l86-49v-4zM716 476l-41-24v3l41 24z"/><path class="fil100" d="M802 423l-42-24-85 49 41 24z"/><path class="fil100" d="M716 472l-41-24v4l41 24zM716 472v4l86-50v-3z"/><path class="fil101" d="M716 468l-41-24v4l41 24z"/><path class="fil101" d="M802 419l-42-24-85 49 41 24z"/><path class="fil100" d="M716 465l-41-24v3l41 24z"/><path class="fil100" d="M802 416l-42-24-85 49 41 24z"/><path class="fil99" d="M805 473l-12 6-11 7-1 1v-2l-37 21v2l-19 11-6 4h-2l-4 3v-64l91-52 1 63zm-89-5v52l86-50v-54l-86 49v3zm79 9l5-3v-1l-5 3v1zm-69 39l5-2v-1l-5 2v1zm63-35l4-3v-1l-4 3v1zm-69 39l5-3-5 2v1z"/><path class="fil91" d="M800 474l-5 3v-1l5-3z"/><path class="fil95" d="M773 493v2l5-3v-2z"/><path class="fil98" d="M781 487l-8 4v2l5-3v2l-5 3v1l4-2 1-1h1v-1c2-1 4-4 4-6h-1l-1 1z"/><path class="fil97" d="M770 496v2l3-2v-1z"/><path class="fil95" d="M770 495v1l3-1v-2z"/><path class="fil97" d="M770 493v2l3-2v-2z"/><path class="fil98" d="M755 505v1l15-8v-2z"/><path class="fil95" d="M755 503v2l15-9v-1z"/><path class="fil98" d="M755 502v1l15-8v-2z"/><path class="fil97" d="M752 507v1l3-2v-1z"/><path class="fil95" d="M752 505v2l3-2v-2z"/><path class="fil97" d="M752 504v1l3-2v-1z"/><path class="fil95" d="M746 508v2l6-3v-2z"/><path class="fil98" d="M742 509l1 2v1c1 0 2 0 3-1l6-3v-1l-6 3v-2l6-3v-1l-8 4-2 1z"/><path class="fil92" d="M744 506v2l8-4 3-2 15-9 3-2 8-4v-2z"/><path class="fil94" d="M743 511l-2 1-15 9v6l51-29v-4l-4 2-3 2-15 8-3 2-6 3c-1 1-2 1-3 1v-1z"/><path class="fil92" d="M721 522v2l5-3 15-9 2-1-1-2z"/><path class="fil93" d="M711 534l-41-24v4l41 24z"/><path class="fil93" d="M711 533l-41-24v2l41 23zM711 533l-41-24 41 24z"/><path class="fil93" d="M715 528l-41-24s0 3-4 5l41 24c4-2 4-5 4-5z"/><path class="fil93" d="M717 523v1l-2 1v3s0 3-4 5v5l15-8v-9l-5 3v-2l-2 1h-2z"/><path class="fil101" d="M716 511v4l86-49v-4z"/><path class="fil100" d="M716 494v3l86-49v-4z"/><path class="fil101" d="M716 490v4l86-50v-3z"/><path class="fil100" d="M716 486v4l86-49v-4z"/><path class="fil101" d="M716 482v4l86-49v-4z"/><path class="fil100" d="M716 479v3l86-49v-3z"/><path class="fil101" d="M716 468v4l86-49v-4z"/><path class="fil100" d="M716 465v3l86-49v-3z"/><path class="fil99" d="M804 410l-41-24-91 52 41 24z"/><path class="fil99" d="M713 462l-41-24v64l41 24z"/><path class="fil94" d="M710 526l-36-20v10l36 21z"/><path class="fil94" d="M711 526l-36-21-1 1 36 20zM710 526v11h1v-11zM707 532l-36-21v7l36 21z"/><path class="fil102" d="M707 529z"/><path class="fil94" d="M707 529l-36-21 36 21z"/><path class="fil102" d="M707 529l-37-21h1l36 21z"/><path class="fil94" d="M707 529l-37-21h-1l36 21z"/><path class="fil94" d="M707 529v3l-36-21v-3l36 21zM707 529v10l3-2v-11l-3 3z"/><path class="fil94" d="M710 526l-36-20-3 2 36 21z"/><path class="fil103" d="M706 484l-36-21 1 45 36 21z"/><path class="fil102" d="M707 529l-36-21h-1l37 21z"/><path class="fil94" d="M705 529l-36-21s2 2 1 8v3l36 21v-3c1-6 0-8-1-8z"/><path class="fil102" d="M667 511c2 1 3 3 3 5l36 21c0-2-1-4-3-5-11-6-25-15-36-21z"/><path class="fil94" d="M702 534l-36-21c1 1 2 3 2 5 0 5-3 11-8 14l36 21c5-3 8-9 8-14 0-2-1-4-2-5z"/><path class="fil93" d="M700 537l-36-21c1 1 2 2 2 4 0 3-3 8-6 9l36 21c3-1 6-6 6-9 0-2-1-3-2-4z"/><path class="fil95" d="M698 540l-36-21c1 0 1 1 1 2 0 2-1 5-3 6l36 20c2-1 3-3 3-5 0-1 0-2-1-2z"/><path class="fil96" d="M662 523l36 21-36-21zM699 542l-36-21c0 1 0 1-1 2l36 21c1-1 1-1 1-2zM660 526l36 21-36-21zM697 545l-36-21v1s0 1-1 1l36 21c1 0 1-1 1-1v-1z"/><path class="fil97" d="M662 522v1l36 21v-1h-2l-9-6c-9-5-17-10-25-15zM663 521h-1l36 21h1c-11-6-25-15-36-21zM661 524h-1l36 21h1c-11-6-25-14-36-21z"/><path class="fil94" d="M705 529c1 0 2 2 1 8v3l1-1v-7-3h-2z"/><path class="fil97" d="M662 522l36 21v-1l-36-21v1zM660 526l36 21-36-21 36 21v-2l-36-21v2z"/><g><path class="fil94" d="M655 532l36 21c1 1 3 1 5 0l-36-21c-2 1-4 1-5 0z"/></g><g><path class="fil96" d="M697 543l-36-21c0 1 0 2-1 2l36 21c1 0 1-1 1-2z"/></g><g><path class="fil95" d="M658 527l36 21c1 0 1 0 2-1l-36-20h-2z"/></g><g><path class="fil93" d="M656 530l36 21c1 0 3 0 4-1l-36-21c-1 1-3 1-4 1z"/></g><g><path class="fil96" d="M660 524l36 21-36-21z"/></g><g><path class="fil97" d="M661 522h-1l36 21h1c-11-6-25-15-36-21z"/></g><g><path class="fil97" d="M659 523c0 1 0 1 1 1l36 21c-1 0-1 0-1-1 0 0-1-1-2-1-3-2-6-3-9-5-8-5-16-10-25-15l36 21 1-1-36-21-1 1z"/></g><g><path class="fil96" d="M658 525l36 21-36-21z"/></g><g><path class="fil96" d="M695 544l-36-21v1s0 1-1 1l36 21c1 0 1-1 1-1v-1z"/></g><g><path class="fil96" d="M697 541l-36-21c0 1 0 1-1 1 0 1 0 1 0 0l36 21c1 0 1-1 1-1z"/></g><g><path class="fil97" d="M662 527c5 3 10 6 16 10 0 0 1 0 2 1 1 0 1 1 2 1 1 1 3 2 4 2 1 1 1 1 2 1 1 1 3 2 4 3 0 0 1 0 2 1-11-7-22-13-32-19z"/></g><g><path class="fil97" d="M659 523h-1l36 21h1c-11-6-26-14-36-21z"/></g><g><path class="fil97" d="M660 521l36 21c-4-2-8-4-11-6-4-3-8-5-12-7-5-3-9-5-13-8z"/></g><g><path class="fil97" d="M661 520h-1l36 21h1c-11-7-26-15-36-21z"/></g><g><path class="fil97" d="M657 525h1l36 21c-1-1-2-1-2-1-5-3-10-6-14-8l-21-12c13 7 25 14 37 21v-2l-36-21c0 1-1 1-1 2z"/></g><g><path class="fil97" d="M694 544v2c1 0 1-1 1-1 0-1 0-1-1-1z"/></g><g><path class="fil96" d="M657 525c0 1 0 1 1 2l36 21c-1-1-1-1-1-2l-36-21z"/></g><g><path class="fil96" d="M662 519h-2l36 21h2c-10-6-25-15-36-21z"/></g><g><path class="fil97" d="M660 521l36 21v-1l-36-21v1z"/></g><g><path class="fil97" d="M696 541v1s0 1 0 0c1 0 1-1 1-1s0-1-1 0z"/></g><g><path class="fil96" d="M660 519c-2 1-3 4-3 6l36 21c0-2 1-5 3-6-11-6-25-14-36-21z"/></g><g><path class="fil95" d="M655 526c0 2 0 3 1 4l36 21c-1-1-1-2-1-4l-36-21z"/></g><g><path class="fil95" d="M664 516c-1-1-2-1-4 0l36 21c2-1 3-1 4 0-11-6-25-15-36-21z"/></g><g><path class="fil94" d="M687 549l-37-21v1l36 21z"/></g><g><path class="fil93" d="M687 549l-37-21 36 21z"/></g><g><path class="fil94" d="M687 547l-36-21-1 2 37 21z"/></g><g><path class="fil95" d="M660 516c-3 2-5 7-5 10l36 21c0-3 2-8 5-10-11-6-25-14-36-21z"/></g><g><path class="fil93" d="M660 514c-4 2-8 8-8 13l36 21c0-5 4-11 8-13-11-6-25-15-36-21z"/></g><g><path class="fil102" d="M687 541l-36-21-1 7 36 21z"/></g><g><path class="fil94" d="M651 526l1 1c12 7 23 14 35 20l-36-21z"/></g><g><path class="fil94" d="M687 547l-36-21-1 1 36 21z"/></g><g><path class="fil93" d="M686 550l1-1-34-20s-1-1-1-2l36 21c0 3 1 4 3 5l-36-21c-1 0-1 0-2-1l33 19z"/></g><g><path class="fil93" d="M666 513c-2 0-4 0-6 1l36 21c2-1 4-1 6-1-11-6-26-14-36-21z"/></g><g><path class="fil93" d="M686 550l-36-21v2l36 21z"/></g><g><path class="fil93" d="M686 549l-36-21v1l36 21z"/></g><g><path class="fil94" d="M686 548l-36-21v2l36 21z"/></g><g><path class="fil94" d="M703 532l-36-21c-2-1-4-1-7 1-5 2-9 9-9 14l36 21c0-5 4-12 9-14 3-2 5-2 7-1z"/></g><g><path class="fil93" d="M686 550l-36-21-18 10 36 21z"/></g><g><path class="fil104" d="M685 539l-36-21-2 10 36 21z"/></g><g><path class="fil94" d="M686 550c1 3 2 5 3 6l-7-4 4-2z"/></g><g><path class="fil94" d="M687 547l-1 1v2-1h1z"/></g><g><path class="fil94" d="M687 547c0-5 4-12 9-14 5-3 10-1 10 4v1c0 6-4 14-10 17-5 3-9 1-10-5l1-1v-2zm9 6c5-3 8-9 8-14s-4-7-8-4c-4 2-8 8-8 13s4 7 8 5z"/></g><g><path class="fil97" d="M696 545v2c1 0 1-1 1-1 0-1 0-1-1-1z"/></g><g><path class="fil97" d="M696 543l-1 1c0 1 1 1 1 1 1 0 1-1 1-2h-1z"/></g><g><path class="fil96" d="M699 542c0 2-1 4-3 5s-3 1-3-1 1-5 3-6 3 0 3 2zm-3 3c1 0 1-1 1-2h-1l-1 1c0 1 1 1 1 1zm0-4v1s0 1 0 0c1 0 1-1 1-1s0-1-1 0zm2 3c1-1 1-1 1-2h-1v2zm-2 3c1 0 1-1 1-1 0-1 0-1-1-1v2zm-2-1c1 0 1-1 1-1 0-1 0-1-1-1v2z"/></g><g><path class="fil93" d="M704 539c0 5-3 11-8 14-4 2-8 0-8-5s4-11 8-13c4-3 8-1 8 4zm-8 11c3-1 6-6 6-9 0-4-3-5-6-4-3 2-5 7-5 10 0 4 2 5 5 3z"/></g><g><path class="fil97" d="M699 542c0 1 0 1-1 1v-1h1z"/></g><g><path class="fil104" d="M705 527l-36-21c1 0 1 1 1 2l37 21c-1-1-1-2-2-2z"/></g><g><path class="fil95" d="M702 541c0 3-3 8-6 9-3 2-5 1-5-3 0-3 2-8 5-10 3-1 6 0 6 4zm-6 6c2-1 3-3 3-5s-1-3-3-2-3 4-3 6 1 2 3 1z"/></g><g><path class="fil102" d="M669 506c-1-1-3-1-5 1l36 20c1 0 3-1 4 0l-36-21 36 21h1c-11-6-25-15-36-21z"/></g><g><path class="fil93" d="M686 550v2-2l1-1h-1z"/></g><g><path class="fil94" d="M686 548l-36-21-3 1 36 21z"/></g><g><path class="fil102" d="M700 527l-36-20-7 4 36 20z"/></g><g><path class="fil102" d="M657 511c-3 1-6 5-6 9l36 21c0-2 1-4 2-6l-36-21 36 21c1-1 2-3 4-4-11-6-25-14-36-20z"/></g><g><path class="fil102" d="M687 541l-1 7 1-1c0-5 4-12 9-14 5-3 10-1 10 4 1-6 0-8-1-8h2c-2-3-4-3-7-2l-7 4c-3 2-6 6-6 10z"/></g><g><path class="fil104" d="M702 524l-36-21-11 7 36 21z"/></g><g><path class="fil104" d="M702 509l-36-21v15l36 21z"/></g><g><path class="fil104" d="M691 531l-36-21c-3 1-5 5-6 8l36 21c1-3 3-7 6-8z"/></g><g><path class="fil94" d="M683 549l-36-21-12 7 36 21z"/></g><g><path class="fil103" d="M677 546l-36-21v2l36 21z"/></g><g><path class="fil103" d="M696 513l-36-21-1 1 36 20z"/></g><g><path class="fil93" d="M696 513l-36-21-1 1 36 21z"/></g><g><path class="fil103" d="M700 511l-36-21-4 2 36 21z"/></g><g><path class="fil93" d="M695 512l-36-21v1l36 21z"/></g><g><path class="fil103" d="M659 493l36 21v-1l-36-20z"/></g><g><path class="fil103" d="M677 548l-36-21-3 2 36 21z"/></g><g><path class="fil103" d="M701 509l-36-21v1l36 21z"/></g><g><path class="fil93" d="M695 512v2l1-1 4-2 1-1v-1l-6 3z"/></g><g><path class="fil91" d="M674 548l-36-21v2l36 21z"/></g><g><path class="fil91" d="M677 546l-36-21-3 2 36 21z"/></g><g><path class="fil103" d="M645 502v1l36 21v-1c-11-6-25-14-36-21z"/></g><g><path class="fil103" d="M645 503h-1l36 21h1l-36-21z"/></g><g><path class="fil93" d="M684 517l-36-21 36 21z"/></g><g><path class="fil94" d="M683 517h1z"/></g><g><path class="fil103" d="M680 524l-36-21-2 2 36 21z"/></g><g><path class="fil93" d="M676 524l-36-21 2 2 36 21z"/></g><g><path class="fil103" d="M678 526l-36-21-4 2 36 21z"/></g><g><path class="fil94" d="M676 524l-36-21v1l36 21z"/></g><g><path class="fil94" d="M675 526l-36-21v1l36 21z"/></g><g><path class="fil94" d="M676 525l-36-21-1 1 36 21z"/></g><g><path class="fil94" d="M675 527l-36-21-1 1 36 21z"/></g><g><path class="fil103" d="M637 507l36 21h1l-36-21h-1z"/></g><g><path class="fil94" d="M674 527l-36-21v1l36 21z"/></g><g><path class="fil94" d="M675 526l-36-21-1 1 36 21z"/></g><g><path class="fil94" d="M674 525l-36-21v2l36 21z"/></g><g><path class="fil94" d="M637 507l36 21v-1c0-1 0-1 1-2l-36-21c-1 1-1 2-1 2v1z"/></g><g><path class="fil93" d="M674 522l-36-21 2 2 36 21z"/></g><g><path class="fil103" d="M674 520l-36-21v5l36 21z"/></g><g><path class="fil94" d="M674 522l-36-21v3l36 21v-3z"/></g><g><path class="fil103" d="M683 518l-36-21-2 5 36 21z"/></g><g><path class="fil105" d="M675 520l-36-21 36 21z"/></g><g><path class="fil103" d="M695 514l-36-21-11 3 36 21z"/></g><g><path class="fil93" d="M659 493l36 21-36-21z"/></g><g><path class="fil93" d="M695 513l-36-21v1l36 21v-1z"/></g><g><path class="fil93" d="M695 514v-1h1l-1 1z"/></g><g><path class="fil105" d="M684 512v5l14-9z"/></g><g><path class="fil105" d="M698 508l-36-21-14 9 36 21z"/></g><g><path class="fil93" d="M684 517z"/></g><g><path class="fil104" d="M702 500l-36-21v9l36 21z"/></g><g><path class="fil103" d="M700 504l-36-21c0 1-1 3-2 4l36 21c1-1 2-3 2-4z"/></g><g><path class="fil103" d="M698 508l-36-21 36 21z"/></g><g><path class="fil103" d="M700 501v3c0 1-1 3-2 4l-14 9 11-3v-2l6-3v1l1-1v-9l-1 1h-1z"/></g><g><path class="fil94" d="M684 517l-36-21h-1l36 21z"/></g><g><path class="fil94" d="M684 512l-36-21v1l36 20z"/></g><g><path class="fil93" d="M685 506l-36-21-1 6 36 21z"/></g><g><path class="fil94" d="M684 506v6l1-6z"/></g><g><path class="fil105" d="M656 489l6-2 36 21-14 4 1-6z"/></g><g><path class="fil94" d="M648 491v1-7l36 21v6z"/></g><g><path class="fil105" d="M684 512v5l-36-21v-4z"/></g><g><path class="fil103" d="M684 517l-36-21 36 21h-1z"/></g><g><path class="fil93" d="M648 496l36 21-36-21z"/></g><g><path class="fil94" d="M648 496h-1l1-4 36 20-1 5z"/></g><g><path class="fil93" d="M647 496l36 21-36-21z"/></g><g><path class="fil94" d="M683 517l-36-21 36 21z"/></g><g><path class="fil103" d="M684 517l-37-21v1l36 21s0-1 1-1z"/></g><g><path class="fil93" d="M675 520c0 1 0 1-1 2l2 2 2 2 2-2h1v-1l2-5v-1l-8 3z"/></g><g><path class="fil105" d="M676 516l-36-21-1 4 36 21z"/></g><g><path class="fil93" d="M673 515h1z"/></g><g><path class="fil93" d="M676 516l-36-21c0 1 0 3-1 4l36 21c1-2 1-3 1-4z"/></g><g><path class="fil105" d="M684 512l-36-20-7 2 36 21z"/></g><g><path class="fil103" d="M676 513l-36-21v3l36 21z"/></g><g><path class="fil103" d="M676 513l-36-21-1 1 36 21z"/></g><g><path class="fil105" d="M677 515l-36-21-1 1 36 21c1 0 1-1 1-1z"/></g><g><path class="fil103" d="M680 507l-36-21-2 1 37 21z"/></g><g><path class="fil103" d="M679 508l-37-21 36 21z"/></g><g><path class="fil93" d="M680 507l-36-21c-1 3-2 5-3 8l36 21c1-3 2-5 3-8z"/></g><g><path class="fil103" d="M675 514c0 2-1 4-1 6v2c1-1 1-1 1-2 1-2 1-3 1-4v-3l-1 1z"/></g><g><path class="fil93" d="M674 522h0zm0-3l-35-20c0 1 0 1-1 2l36 21v-2-1z"/></g><g><path class="fil103" d="M671 549v7l12-7 2-10c1-3 3-7 6-8l11-7v-15l-1 1-1 1-4 2h-1v1l-11 3c-1 0-1 1-1 1l-2 5v1h-1l-2 2-4 2c-1 0-1 0-1-1s0-1 1-2v-5c-1 2-2 5-2 9l-1 12v8zm3 1v-2l3-2v2l-3 2z"/></g><g><path class="fil104" d="M691 531l11-7v-37l4-3 1 45c-2-3-4-3-7-2l-7 4c-3 2-6 6-6 10l-1 7-3 1 2-10c1-3 3-7 6-8z"/></g><g><path class="fil103" d="M700 510zm0 0h0z"/></g><g><path class="fil93" d="M633 539l36 21h-1l-36-21h1z"/></g><g><path class="fil93" d="M668 560l-36-21 36 21z"/></g><g><path class="fil93" d="M668 560c1 1 2 1 3 0l15-8v-2l-18 10z"/></g><g><path class="fil94" d="M668 559l-36-21v1l36 21v-1z"/></g><g><path class="fil91" d="M674 548v2l3-2v-2z"/></g><g><path class="fil103" d="M702 500l-36-21-1 1 36 21z"/></g><g><path class="fil104" d="M702 487l-36-21v13l36 21z"/></g><g><path class="fil103" d="M700 496l-36-21v5l36 21z"/></g><g><path class="fil103" d="M701 501l-36-21h-1l36 21z"/></g><g><path class="fil103" d="M700 501l-36-21v3l36 21z"/></g><g><path class="fil103" d="M671 549l-36-21v7l36 21z"/></g><g><path class="fil94" d="M667 554l-36-21 1 5 36 21z"/></g><g><path class="fil104" d="M668 551l-36-21 36 21z"/></g><g><path class="fil104" d="M668 551l-36-21 36 21z"/></g><g><path class="fil94" d="M671 549l-36-21-3 2 36 21z"/></g><g><path class="fil103" d="M706 484l1 45 3-3v-41-3l-4 2z"/></g><g><path class="fil103" d="M710 482l-36-21-4 2 36 21z"/></g><g><path class="fil94" d="M668 551c-1 1-1 2-1 3l1 5v1l18-10v-2l-3 1-12 7v-7l-3 2z"/></g><g><path class="fil106" d="M709 481l-36-21h-1l36 21h1z"/></g><g><path class="fil103" d="M671 541l-36-21v8l36 21z"/></g><g><path class="fil103" d="M700 491l-36-21v5l36 21z"/></g><g><path class="fil104" d="M671 541l-36-21-1 1 36 21z"/></g><g><path class="fil107" d="M672 529l-36-21-1 12 36 21z"/></g><g><path class="fil104" d="M670 537l-36-21v5l36 21z"/></g><g><path class="fil91" d="M669 537l-36-20v6l36 21z"/></g><g><path class="fil100" d="M668 543l-36-21v3l36 21z"/></g><g><path class="fil104" d="M670 542l-36-21s0 1-1 2l36 21c1-1 1-2 1-2z"/></g><g><path class="fil104" d="M668 546l-36-21v5l36 21v-5z"/></g><g><path class="fil104" d="M670 542s0 1-1 2c0 1-1 1-1 2v5l3-2v-8l-1 1z"/></g><g><path class="fil104" d="M669 544l-36-21c0 1-1 1-1 2l36 21c0-1 1-1 1-2z"/></g><g><path class="fil104" d="M706 484l-36-21-4 3 36 21z"/></g><g><path class="fil103" d="M700 490l-36-21v1l36 21v-1z"/></g><g><path class="fil105" d="M685 501l-36-21v5l36 21z"/></g><g><path class="fil94" d="M684 501l-36-21v5l36 21z"/></g><g><path class="fil94" d="M685 506l-36-21h-1l36 21z"/></g><g><path class="fil94" d="M684 501v5h1v-5z"/></g><g><path class="fil93" d="M654 483l10-3 36 21-15 5v-5z"/></g><g><path class="fil93" d="M685 506l-1 6 14-4c1-1 2-3 2-4v-3l-15 5z"/></g><g><path class="fil94" d="M685 501l-36-21h-1l36 21z"/></g><g><path class="fil93" d="M685 498l-36-21v3l36 21z"/></g><g><path class="fil94" d="M685 499h-1v2h1v-3 1z"/></g><g><path class="fil105" d="M652 479l12-4 36 21-15 5v-3z"/></g><g><path class="fil94" d="M685 498l-36-21v1l36 21z"/></g><g><path class="fil94" d="M684 499l-36-21v2l36 21z"/></g><g><path class="fil103" d="M685 499l-36-21h-2l36 21z"/></g><g><path class="fil104" d="M685 496l-36-21-4 3 36 21z"/></g><g><path class="fil93" d="M685 498l-36-21v1l36 21v-1z"/></g><g><path class="fil94" d="M685 499l-36-21h-1l36 21h1z"/></g><g><path class="fil105" d="M684 501l-36-21-1 1 36 21z"/></g><g><path class="fil93" d="M684 499l-36-21c0 1-1 2-1 3l36 21c0-1 1-2 1-3z"/></g><g><path class="fil103" d="M685 496l-36-21c0 1-1 1-2 3l36 21c1-2 2-3 2-3z"/></g><g><path class="fil103" d="M685 496s-1 1-2 3h2v-1l14-8c1 0 1 0 1 1v10h1l1-1v-13l-17 9z"/></g><g><path class="fil93" d="M684 506l-36-21-4 1 36 21z"/></g><g><path class="fil103" d="M681 502l-36-21 36 21z"/></g><g><path class="fil103" d="M683 502l-36-21h-2l36 21z"/></g><g><path class="fil105" d="M683 502l-36-21c-1 2-2 3-3 5l36 21c1-2 2-3 3-5z"/></g><g><path class="fil103" d="M683 499l-36-21c0 1-1 2-2 3l36 21c1-1 2-3 2-3z"/></g><g><path class="fil105" d="M675 514l-36-21c0 2-1 4-1 6l36 21c0-2 1-4 1-6z"/></g><g><path class="fil105" d="M642 487l-3 6 36 21c1-2 2-5 3-6-11-7-25-15-36-21z"/></g><g><path class="fil93" d="M645 481c-1 2-2 3-3 6l36 21c1-3 2-4 3-6-11-6-25-15-36-21z"/></g><g><path class="fil106" d="M687 493c-2 1-4 3-6 6l4-3 17-9 4-3 4-2c-1-1-1-1-2-1l-21 12z"/></g><g><path class="fil93" d="M699 490zm0 0zm0 0zm0 0zm0 0zm1 0h-1 1zm0 0zm-1 0zm1 0zm0 0zm0 0zm0 0zm0 0zm0 0zm0 0zm0 0zm-4-2l-32-19h-1l33 19z"/></g><g><path class="fil91" d="M670 537l-36-21-1 1 36 20z"/></g><g><path class="fil91" d="M669 537v7c1-1 1-2 1-2v-5h-1z"/></g><g><path class="fil94" d="M684 512l-1 5h1v-5z"/></g><g><path class="fil104" d="M668 538l-36-21v5l36 21v-5z"/></g><g><path class="fil100" d="M669 537l-36-20h-1l36 21z"/></g><g><path class="fil100" d="M668 538v8c0-1 1-1 1-2v-7l-1 1z"/></g><g><path class="fil94" d="M674 527v1l1-1v-1z"/></g><g><path class="fil94" d="M674 525c-1 1-1 1-1 2s0 1 1 1l4-2-2-2v1l-1 1v1l-1 1v-3z"/></g><g><path class="fil94" d="M674 522v5l1-1 1-1v-1l-2-2z"/></g><g><path class="fil104" d="M667 531l1 1c2-1 2-2 2-2l-3 1z"/><path class="fil106" d="M632 511l35 20 3-1-34-20-4 1z"/></g><g><path class="fil104" d="M668 532l-36-21v6l36 21v-3-3z"/></g><g><path class="fil93" d="M676 516c0 1 0 2-1 4l1-4z"/></g><g><path class="fil105" d="M685 501v5l15-5v-5z"/></g><g><path class="fil105" d="M677 515s0 1-1 1l-1 4 8-3 1-5-7 3z"/></g><g><path class="fil93" d="M674 520l-36-21c-1 2-2 5-2 9l36 21c0-4 1-7 2-9z"/></g><g><path class="fil93" d="M680 507c-1 3-2 5-3 8l7-3v-6l-4 1z"/></g><g><path class="fil93" d="M685 498v1-1 3l15-5v-5c0-1 0-1-1-1l-14 8z"/></g><g><path class="fil93" d="M684 499c0 1-1 2-1 3l1-1v-2z"/></g><g><path class="fil105" d="M683 502c-1 2-2 3-3 5l4-1v-5l-1 1z"/></g><g><path class="fil104" d="M674 517c-2 4-3 8-4 13 0 0 0 1-2 2v6l1-1h1v5l1-1 1-12c0-4 1-7 2-9v-3z"/></g><g><path class="fil104" d="M675 514c-1 1-1 2-1 3v3c0-2 1-4 1-6z"/></g><g><path class="fil106" d="M708 481l-36-21-21 12 36 21z"/></g><g><path class="fil103" d="M678 508c-1 1-2 4-3 6l1-1v3c1 0 1-1 1-1 1-3 2-5 3-8l-1 1h-1z"/></g><g><path class="fil103" d="M683 499s-1 2-2 3h2c0-1 1-2 1-3h1-2z"/></g><g><path class="fil103" d="M681 502c-1 2-2 3-3 6h1l1-1c1-2 2-3 3-5h-2z"/></g><g><path class="fil104" d="M680 502v-1 1z"/></g><g><path class="fil106" d="M687 493l-36-21c-2 1-4 3-6 6l36 21c2-3 4-5 6-6z"/></g><g><path class="fil107" d="M675 525v-1l2 1h-1zM677 525l1-1v3h-1z"/><path class="fil107" d="M677 524h1l-1 1zM677 516h1v7l-1 1z"/><path class="fil107" d="M677 522l1-1v3h-1z"/><path class="fil107" d="M678 523c0 1 0 2 1 2h-1l-1-1s1 0 1-1zM677 522v5l-2-1v-1h1v-3zM676 522h1l1-1-1 1zM678 525h1l2 1h-1zM681 526h-1 1zM681 526v0zM681 526v0z"/><path class="fil93" d="M681 518v8z"/><path class="fil107" d="M681 518h1v8h-1zM682 526h-1v0h1zM678 516h-1 1v-1 1zM678 515h-1 1zM678 515h-1 1z"/><path class="fil93" d="M678 516v-1h1l-1 1c0-1 0-1 0 0z"/><path class="fil107" d="M678 515h1-1-1 1z"/><path class="fil93" d="M680 517l1-1v2s0-1-1-1z"/><path class="fil107" d="M681 517h-1l1-1v1z"/><path class="fil107" d="M680 517c1 0 1 1 1 1v8s0 1-1 0l-2-1-1-1v-8s1-1 1 0l2 1zM681 517c1 0 1 1 1 1h-1v-1zM681 517z"/><path class="fil107" d="M680 517c1 0 1 1 1 1v8c0 1 0 1-1 1l-2-2h-1v-9c0-1 1-1 1-1l2 2zm1 9v-8s0-1-1-1l-2-1c0-1-1 0-1 0v8l1 1 2 1c1 1 1 0 1 0z"/><path class="fil107" d="M678 515h1l2 1-1 1z"/></g><g><path class="fil107" d="M651 516c3-15 11-28 11-29h-1s-8 14-11 29h1z"/></g><g><path class="fil108" d="M667 531"/></g><g><path class="fil108" d="M671 529l-1 1"/></g><path class="fil100" d="M668 538l-3-1v7l3 2zM634 519l-2-2v8l2 1v-7z"/><path class="fil105" d="M634 521h1l30 18v-2l-31-18zM634 525l31 18v-2l-31-18zM635 528v2l28 17 2-2z"/><path class="fil93" d="M634 526l1 2 30 17v-2l-31-18zM663 547l-28-17 1 2 27 16zM665 541v-2l-30-18h-1v2z"/><g><path class="fil100" d="M664 553l1 1c0 1 0 2-1 1l-1-1c0-1 1-2 1-1z"/></g><g><path class="fil100" d="M635 536v1c1 1 0 2-1 1v-1c-1-1 0-2 1-1z"/></g><g><path class="fil95" d="M639 538v1l17 10v-1l-17-10z"/></g><g><path class="fil104" d="M680 502c-1 2-3 7-5 12 1-2 2-5 3-6 1-3 2-4 3-6 1-1 2-3 2-3 1-2 2-3 2-3l-4 3-36-21-1 3 36 21v-1 1zM680 502v-1 1z"/></g><g><path d="M635 532l-1-6v-8l32 19v7l-3 4-28-16zm30 5l-30-18v7l1 6 27 15 2-3v-7z" fill="#8585a3" fill-rule="nonzero"/></g><g><path class="fil94" d="M668 551l-36-21c-1 1-1 2-1 3l36 21c0-1 0-2 1-3z"/></g><g><path class="fil110" d="M668 548v2l-4-2 1-2z"/></g><g><path class="fil110" d="M634 528l1 3-3-2v-2z"/></g></g><g><path class="fil84" d="M741 349l-6-4-4-2c-3-1-7 0-10 2-10 5-17 18-17 28v4l4 7 14 24 10 5 1-3-3-2-5-10 10-33c1-4 2-7 2-11v-4l4 3v-4z"/><path class="fil85" d="M730 351c-9 5-16 18-16 28v5l4 7 14 22 13-43c1-3 2-7 2-10 0-10-8-15-17-9z"/><path class="fil86" d="M736 366c0 3-2 8-6 10-3 2-6 1-6-3s3-9 6-11c4-2 6 0 6 4z"/><path class="fil87" d="M731 405l-11-19c-2-2-3-4-3-8 0-8 6-18 13-22 2-1 4-2 6-2 4 0 7 4 7 9 0 3-1 6-2 8l-10 34zm2-44c-1 0-2 1-3 1-3 2-6 7-6 11 0 2 1 4 3 4 1 0 2 0 3-1 4-2 6-7 6-10s-1-5-3-5z"/><path class="fil86" d="M727 377c-2 0-3-2-3-4 0-4 3-9 6-11 1 0 2-1 3-1 2 0 3 2 3 5s-2 8-6 10c-1 1-2 1-3 1z"/></g></g></g></svg>